<?xml version="1.0" encoding="utf-8"?>
<!-- Generator: Adobe Illustrator 15.1.0, SVG Export Plug-In . SVG Version: 6.00 Build 0)  -->
<!DOCTYPE svg PUBLIC "-//W3C//DTD SVG 1.1//EN" "http://www.w3.org/Graphics/SVG/1.1/DTD/svg11.dtd">
<svg version="1.1" xmlns="http://www.w3.org/2000/svg" xmlns:xlink="http://www.w3.org/1999/xlink" x="0px" y="0px"
	 width="241.301px" height="489.554px" viewBox="0 0 241.301 489.554" enable-background="new 0 0 241.301 489.554"
	 xml:space="preserve">
<g>
	<g>
		<g>
			<rect x="153.629" y="189.077" fill="#D8CED2" stroke="#231F20" width="11.179" height="281.888"/>
		</g>
		<path fill="#D8CED2" stroke="#231F20" d="M113.305,489.054h51.503v-18.089h-34.625c-9.321,0-16.878,7.557-16.878,16.879V489.054z"
			/>
		<g>
			<g>
				<polygon fill="#F6E5EB" stroke="#231F20" points="79.263,352.089 79.263,363.268 227.409,363.268 159.218,192.41 148.04,192.41 
					210.374,352.089 				"/>
			</g>
			<path fill="#F6E5EB" stroke="#231F20" d="M79.263,352.089L79.263,352.089c-7.662,0-13.873,6.211-13.873,13.873v7.975
				c0,14.07,11.406,25.478,25.477,25.478l0,0v-47.325H79.263z"/>
		</g>
	</g>
</g>
<g>
	<g>
		<path fill="#F7638D" stroke="#231F20" d="M129.41,186.017h-24.726l5.424-154.842C110.695,14.41,97.264,0.5,80.488,0.5H65.695
			c-14.503,0-26.261,11.757-26.261,26.26l0,0c0,14.868,12.333,26.771,27.19,26.243l18.506-0.655L74.804,202.976
			c-3.052,44.502,32.226,82.28,76.833,82.28h77.013l0,0C228.649,230.447,184.219,186.017,129.41,186.017z"/>
		<path fill="#FF97BA" stroke="#231F20" d="M155.971,178.832h-18.98c-23.426,0-42.415,18.989-42.415,42.415l0,0
			c0,23.425,18.989,42.415,42.415,42.415h103.811v-0.001C240.801,216.812,202.821,178.832,155.971,178.832z"/>
		<path fill="#F6E5EB" stroke="#231F20" d="M67.784,32.961l-9.26,9.977c-5.614,6.063-13.513,9.503-21.775,9.49l-11.021-0.012
			c-0.413,0-0.827,0-1.228,0.024c-7.51,0.206-14.643,3.378-19.844,8.822L0.5,65.612V49.244c0-16.21,9.916-30.1,24-35.957
			c4.593-1.92,9.636-2.977,14.934-2.977h5.712C45.146,34.614,67.784,32.961,67.784,32.961z"/>
		<path fill="#17153F" stroke="#231F20" d="M24.5,13.287V52.44c-7.51,0.206-14.643,3.378-19.844,8.822L0.5,65.612V49.244
			C0.5,33.034,10.416,19.145,24.5,13.287z"/>
		<circle fill="#17153F" stroke="#231F20" cx="71.582" cy="21.006" r="3.797"/>
		<g>
			<path fill="#F6E5EB" stroke="#231F20" d="M151.709,232.574l-0.26,0.26c-1.002,1.001-2.625,1.001-3.626,0l-19.288-19.289
				c-1.001-1.001-1.001-2.624,0-3.625l0.26-0.26c1.001-1.001,2.624-1.001,3.625,0l19.289,19.288
				C152.71,229.949,152.71,231.572,151.709,232.574z"/>
			<path fill="#F6E5EB" stroke="#231F20" d="M179.274,232.574l-0.26,0.26c-1.001,1.001-2.624,1.001-3.625,0l-19.288-19.289
				c-1.002-1.001-1.002-2.624,0-3.625l0.26-0.26c1.001-1.001,2.624-1.001,3.625,0l19.288,19.288
				C180.275,229.949,180.275,231.572,179.274,232.574z"/>
			<path fill="#F6E5EB" stroke="#231F20" d="M206.841,232.574l-0.26,0.26c-1.001,1.001-2.624,1.001-3.625,0l-19.288-19.289
				c-1.002-1.001-1.002-2.624,0-3.625l0.26-0.26c1-1.001,2.623-1.001,3.625,0l19.288,19.288
				C207.842,229.949,207.842,231.572,206.841,232.574z"/>
		</g>
	</g>
</g>
</svg>
