<?xml version="1.0" encoding="utf-8"?>
<!-- Generator: Adobe Illustrator 15.1.0, SVG Export Plug-In . SVG Version: 6.00 Build 0)  -->
<!DOCTYPE svg PUBLIC "-//W3C//DTD SVG 1.1//EN" "http://www.w3.org/Graphics/SVG/1.1/DTD/svg11.dtd">
<svg version="1.1" xmlns="http://www.w3.org/2000/svg" xmlns:xlink="http://www.w3.org/1999/xlink" x="0px" y="0px"
	 width="231.843px" height="166.853px" viewBox="0 0 231.843 166.853" enable-background="new 0 0 231.843 166.853"
	 xml:space="preserve">
<g id="Layer_2">
	<path fill="#FF4A5B" stroke="#231F20" stroke-miterlimit="10" d="M48.475,119.481c-9.634-3.779-20.935-3.042-29.999,1.95
		c-1.381,0.762-2.719,1.621-3.846,2.721c-2.651,2.588-3.931,6.328-4.237,10.021c-0.304,3.694,0.272,7.397,0.849,11.058
		c0.391,2.491,0.804,5.043,2.061,7.229c5.857-4.494,2.504-15.157,8.034-20.049c1.589-1.405,3.685-2.079,5.742-2.608
		c4.771-1.233,9.686-1.899,14.614-1.984c2.927-0.048,5.948,0.091,8.682-0.961c0.267-2.163,0.034-4.388-0.677-6.45"/>
</g>
<g id="Layer_4">
	<path fill="#FF4A5B" stroke="#231F20" stroke-miterlimit="10" d="M47.982,99.614c-4.872-0.374-9.746-0.749-14.618-1.123
		c-5.259-0.403-10.593-0.805-15.77,0.211c-5.176,1.016-10.262,3.638-13.092,8.087c-1.526,2.401-2.322,5.195-2.886,7.983
		c-0.91,4.51-1.267,9.13-1.061,13.723c0.083,1.812,0.862,4.181,2.67,4.045c3.368-6.292,2.562-14.573,7.259-19.947
		c3.262-3.732,8.419-5.113,13.312-5.896c8.338-1.336,16.869-1.485,25.25-0.444c1.923-2.052,1.789-5.679-0.283-7.583"/>
</g>
<g id="Layer_3">
	<path fill="#FF4A5B" stroke="#231F20" stroke-miterlimit="10" d="M51.915,135.73l0.845,2.145
		c-6.818-0.479-14.33-0.759-19.721,3.443c-3.788,2.951-5.866,7.952-5.293,12.718c0.574,4.767,3.783,9.131,8.164,11.098
		c1.505-2.488,0.729-5.687,1.259-8.547c0.764-4.115,4.17-7.213,7.717-9.437c3.544-2.223,7.478-3.947,10.446-6.894
		C54.193,138.746,53.056,137.239,51.915,135.73z"/>
</g>
<g id="Layer_5">
	<path fill="#FF4A5B" stroke="#231F20" stroke-miterlimit="10" d="M183.836,98.673c8.625-1.231,17.378-2.249,26.035-1.277
		c4.935,0.556,9.963,1.836,13.848,4.927c4.396,3.493,6.874,9.021,7.467,14.605c0.593,5.581-0.549,11.229-2.376,16.537
		c-1.921-5.04-4.302-9.899-7.115-14.502c-1.937-3.171-4.127-6.27-7.065-8.546c-4.011-3.107-9.191-4.458-14.265-4.481
		c-5.075-0.022-10.08,1.204-14.893,2.82c-0.912-2.562-1.616-5.201-2.1-7.878"/>
</g>
<g id="Layer_6">
	<path fill="#FF4A5B" stroke="#231F20" stroke-miterlimit="10" d="M187.691,118.109c4.154-0.856,8.399-1.275,12.641-1.252
		c3.463,0.019,6.981,0.344,10.211,1.598c3.228,1.251,6.168,3.521,7.665,6.646c0.747,1.562,1.114,3.276,1.405,4.983
		c0.978,5.704,1.183,11.539,0.61,17.298c-0.133,1.342-0.867,3.104-2.181,2.803c-0.963-2.779-1.923-5.56-2.885-8.34
		c-0.959-2.771-1.949-5.604-3.776-7.896c-2.919-3.66-7.67-5.491-12.338-5.83c-4.67-0.338-9.324,0.644-13.879,1.727
		c-0.285,0.067-0.602,0.133-0.861-0.004c-0.505-0.262-0.413-0.999-0.25-1.541c1.021-3.396,2.04-6.789,3.059-10.182"/>
</g>
<g id="Layer_7">
	<path fill="#FF4A5B" stroke="#231F20" stroke-miterlimit="10" d="M179.014,136.837c3.82-0.543,7.686,0.372,11.412,1.379
		c4.918,1.327,10.289,3.229,12.641,7.747c1.843,3.545,1.283,7.996-0.676,11.481c-1.957,3.483-5.134,6.124-8.499,8.28
		c1.028-3.692,1.081-7.652,0.151-11.373c-0.32-1.266-0.761-2.53-1.562-3.562c-0.706-0.915-1.658-1.604-2.596-2.28
		c-4.147-2.989-8.665-6.104-13.776-6.111c0.04-2.55,1.339-5.05,3.401-6.549"/>
</g>
<g id="Layer_8">
	<g id="Layer_1">
		<path fill="#FF4A5B" stroke="#231F20" stroke-miterlimit="10" d="M42.332,50.704c-0.168-0.969-0.286-2.002,0.089-2.91
			c0.233-0.566,0.636-1.025,1.091-1.441c0.354-0.322,0.737-0.618,1.107-0.916c6.326-5.055,9.848-13.417,9.045-21.475
			C52.862,15.903,47.76,8.4,40.562,4.69c-1.792,2.114-0.089,5.284-0.118,8.056c-0.037,3.129-2.348,5.691-3.696,8.512
			c-1.35,2.822-1.138,7.13,1.861,8.021c-3.731,3.156-5.342,8.536-4.167,13.252c0.16,0.645,0.369,1.277,0.636,1.889
			c-0.217-0.183-0.442-0.354-0.663-0.53c-2.678-2.114-5.734-3.746-8.985-4.779c2.521-3.27,5.171-6.917,4.993-11.042
			c-0.169-3.995-3.01-7.824-1.992-11.688c0.576-2.185,2.288-3.865,3.349-5.864c1.058-1.996,1.198-4.931-0.745-6.085l-1.467-0.36
			c-5.032-3.666-12.685-1.986-16.817,2.668c-4.134,4.655-5.154,11.446-4.093,17.581c1.667,9.643,8.252,18.304,17.101,22.487
			c2.557,1.211,5.37,2.125,7.33,4.165c0.07,0.073,0.133,0.153,0.2,0.229c1.324,1.478,2.122,3.354,2.881,5.196
			c3.036,7.38,6.188,15.114,12.284,20.266c2.417,2.041,5.375,3.642,8.536,3.691c3.161,0.048,6.48-1.783,7.442-4.796
			C53.244,72.218,44.34,62.204,42.332,50.704z"/>
		<path fill="#FF4A5B" stroke="#231F20" stroke-miterlimit="10" d="M216.306,3.867c-4.191-3.64-12.528-3.644-17.812-3.118
			c-1.498,0.149-3.186,0.643-3.799,2.014c-1.123,2.511,2.112,4.553,3.979,6.569c3.275,3.539,2.579,9.059,1.851,13.824
			c-0.729,4.768-0.933,10.472,2.835,13.481c-2.42,2.523-5.715,4.177-9.175,4.644c-0.155,0.021-0.31,0.054-0.466,0.07
			c0.09-0.141,0.166-0.288,0.249-0.433c0.323-0.562,0.586-1.154,0.798-1.765c1.406-4.064,0.365-8.972-2.797-11.938
			c2.328-0.218,4.48-1.799,5.379-3.959c-3.976-5.655-6.029-12.638-5.756-19.545l0.297-0.166c-5.084,0.149-9.691,3.641-12.082,8.131
			c-2.389,4.49-2.805,9.816-2.152,14.858c0.795,6.149,3.519,12.555,8.988,15.476c0.523,0.28,1.087,0.556,1.629,0.855
			c1.172,0.648,2.232,1.423,2.489,2.682c0.153,0.751-0.036,1.527-0.245,2.266c-3.145,11.111-11.396,20.662-21.933,25.387
			c-0.149,2.946,3.37,4.979,6.279,4.47c2.908-0.51,5.208-2.664,7.323-4.722c6.15-5.98,12.558-12.388,14.757-20.681
			c0.286-1.087,0.532-2.254,1.322-3.054c0.68-0.691,1.651-0.984,2.58-1.281c0.029-0.01,0.06-0.021,0.091-0.03
			c11.043-3.559,19.997-14.124,19.882-25.727C220.758,16.188,221.275,8.177,216.306,3.867z"/>
		<path fill="#FF4A5B" stroke="#231F20" stroke-miterlimit="10" d="M76.316,44.448c0.212,5.574,2.192,10.908,4.15,16.131
			c0.579,1.547,1.221,3.179,2.538,4.18c1.314,0.998,3.526,1.003,4.365-0.422c0.845-1.438-0.12-3.204-0.806-4.725
			c-1.276-2.824-1.573-5.989-2.567-8.925c-0.995-2.938-3.025-5.867-6.064-6.479"/>
		<path fill="#FF4A5B" stroke="#231F20" stroke-miterlimit="10" d="M147.215,47.292c0.048,4.23-1.012,8.469-3.049,12.18
			c-0.566,1.034-1.159,2.46-0.283,3.252c0.879,0.796,2.777,0.354,3.037,1.513c4.873-5.602,7.714-12.936,7.887-20.358
			c-2.255,0.723-4.498,1.477-6.732,2.26"/>
		<g>
			<path fill="#FF4A5B" stroke="#231F20" stroke-miterlimit="10" d="M95.766,11.116c-3.5-2.773-7.523-5.08-11.945-5.713
				c-4.028-0.579-8.417,0.429-11.374,3.167c-0.593,0.254-1.181,0.517-1.757,0.783c-3.314,1.527-6.725,3.249-8.884,6.19
				c-3.49,4.762-2.789,11.335-1.454,17.087c0.699,3.006,1.6,6.111,3.709,8.363c1.119,1.195,2.521,2.087,3.932,2.918
				c3.484,2.058,7.179,3.878,11.152,4.646c8.084,1.563,16.994-1.766,21.82-8.438c4.822-6.67,5.125-16.383,0.469-23.174
				C99.895,14.704,97.897,12.805,95.766,11.116z"/>
			<path fill="#FF4A5B" stroke="#231F20" stroke-miterlimit="10" d="M172.339,21.333c-0.978-7.672-6.292-14.644-13.433-17.618
				c-7.141-2.974-15.832-1.837-21.966,2.876l2.201-0.705c-4.401,2.678-7.914,6.842-9.522,11.745
				c-2.883,8.792,0.617,19.262,8.18,24.593c7.564,5.327,18.571,5.114,25.949-0.469C169.916,37.087,173.315,29.007,172.339,21.333z"
				/>
		</g>
		<circle fill="#99E9C3" stroke="#231F20" stroke-miterlimit="10" cx="88.284" cy="26.97" r="8.468"/>
		<circle fill="#99E9C3" stroke="#231F20" stroke-miterlimit="10" cx="157.59" cy="26.97" r="8.468"/>
		<path fill="#FF4A5B" stroke="#231F20" stroke-miterlimit="10" d="M189.856,108.503c-1.32-8.302-4.814-16.097-8.812-23.487
			c-2.652-4.904-5.622-9.776-9.904-13.347c-6.146-5.124-14.297-7.02-22.148-8.578c-19.257-3.821-39.328-6.542-58.378-1.785
			c-7.501,1.873-14.824,5.148-21.221,9.594l1.046-1.456c-7.712,3.227-13.622,9.892-17.326,17.388
			c-3.704,7.493-5.402,15.813-6.546,24.095c-1.681,12.174-1.54,26.323,7.604,34.535c4.778,4.292,11.219,6.135,17.455,7.674
			c16.108,3.979,32.503,6.803,49.015,8.448c8.499,0.849,17.214,1.366,25.465-0.836c9.685-2.587,17.984-8.706,25.96-14.779
			c5.044-3.843,10.163-7.827,13.567-13.173C190.145,125.707,191.176,116.8,189.856,108.503z"/>
	</g>
</g>
</svg>
