<?xml version="1.0" encoding="utf-8"?>
<!-- Generator: Adobe Illustrator 15.1.0, SVG Export Plug-In . SVG Version: 6.00 Build 0)  -->
<!DOCTYPE svg PUBLIC "-//W3C//DTD SVG 1.1//EN" "http://www.w3.org/Graphics/SVG/1.1/DTD/svg11.dtd">
<svg version="1.1" id="Layer_1" xmlns="http://www.w3.org/2000/svg" xmlns:xlink="http://www.w3.org/1999/xlink" x="0px" y="0px"
	 width="714.554px" height="152.976px" viewBox="0 0 714.554 152.976" enable-background="new 0 0 714.554 152.976"
	 xml:space="preserve">
<g>
	<path fill="#FFEF00" stroke="#231F20" stroke-width="0.6671" stroke-miterlimit="10" d="M684.081,103.622
		c-0.003,0.095-0.277,0.44-0.829,1.044c-0.657,0.716-1.584,1.702-2.774,2.955c-1.194,1.253-2.54,2.685-4.03,4.298
		c-1.493,1.611-3.016,3.312-4.565,5.103c-2.149,1.911-4.36,3.971-6.626,6.178c-2.268,2.21-4.418,3.851-6.445,4.925
		c-1.673,0.956-3.045,1.463-4.119,1.521c-1.074,0.062-1.852-0.207-2.327-0.805c-0.479-0.598-0.628-1.461-0.448-2.598
		c0.179-1.133,0.745-2.417,1.701-3.85l13.251-19.34c1.075-1.67,1.191-3.818,0.358-6.445c-0.837-2.625-2.928-5.192-6.269-7.699
		c-0.478-0.359-1.017-0.717-1.611-1.075c-0.6-0.358-1.194-0.654-1.79-0.896c2.028-3.103,3.818-6.088,5.372-8.953
		c1.55-2.865,2.625-4.952,3.224-6.267c0.833-2.866,0.535-5.431-0.896-7.7c-1.432-2.267-3.761-3.282-6.983-3.044
		c-1.79,0-3.76,0.958-5.908,2.865c-2.147,1.911-3.97,4.27-5.463,7.073c-1.494,2.807-2.39,5.792-2.685,8.954
		c-0.3,3.164,0.447,5.998,2.237,8.506l-2.506,3.223c-2.629,3.464-5.103,6.418-7.433,8.863c-2.188,2.302-4.239,4.903-6.164,7.783
		c-4.143,4.24-8.235,8.182-12.277,11.824c-5.434,4.896-11.492,8.178-18.176,9.849c-5.612,1.194-8.774-0.296-9.489-4.477
		c-0.359-1.192-0.359-2.476,0-3.851c0.357-1.371,0.834-2.833,1.433-4.387c5.729-1.312,11.249-3.103,16.562-5.371
		c5.31-2.267,10.414-5.551,15.31-9.849c2.982-2.625,4.835-5.311,5.552-8.058c0.715-2.745,0.715-5.221,0-7.432
		c-0.717-2.207-2-3.998-3.851-5.372c-1.851-1.37-3.851-2.06-5.998-2.06c-3.464,0-7.135,1.227-11.013,3.671
		c-3.881,2.448-7.551,5.523-11.012,9.222c-3.465,3.701-6.537,7.7-9.222,11.998c-1.424,2.278-2.599,4.472-3.536,6.582
		c-1.818,1.873-3.831,3.885-6.046,6.041c-2.268,2.211-4.476,4.15-6.624,5.82c-2.27,1.791-4.239,3.285-5.909,4.477
		c-1.673,1.194-2.955,1.732-3.851,1.611c-0.895-0.117-1.314-0.954-1.253-2.507c0.058-1.55,0.744-4.178,2.06-7.879
		c1.55-4.298,3.162-7.938,4.836-10.923c1.668-2.982,3.102-5.848,4.296-8.596c0.359-0.596,0.834-1.459,1.433-2.596
		c0.596-1.133,1.074-2.387,1.434-3.76c0.357-1.371,0.535-2.804,0.535-4.298c0-1.491-0.357-2.894-1.074-4.208
		c-1.79-3.223-3.82-4.924-6.086-5.104c-2.271-0.18-4.45,0.33-6.537,1.521c-2.091,1.195-3.91,2.628-5.462,4.298
		c-1.553,1.673-2.507,2.628-2.864,2.865c-4.539,4.298-8.389,8.716-11.55,13.251c-3.165,4.538-6.24,9.432-9.223,14.684
		c1.193-3.104,2.356-6.089,3.493-8.953c1.132-2.865,2.177-5.252,3.134-7.163c0.237-0.716,0.596-1.671,1.074-2.865
		c0.474-1.191,0.895-2.507,1.253-3.938c0.357-1.434,0.506-2.894,0.447-4.388c-0.061-1.491-0.447-2.894-1.164-4.208
		c-1.791-3.223-3.821-4.924-6.088-5.104c-2.27-0.18-4.449,0.33-6.536,1.521c-2.09,1.195-3.881,2.628-5.371,4.298
		c-1.494,1.673-2.417,2.628-2.776,2.865c-4.538,4.298-8.415,8.536-11.638,12.714c-3.225,4.18-6.329,8.715-9.312,13.608
		c0.833-2.387,1.58-4.505,2.237-6.356c0.655-1.85,1.371-3.672,2.149-5.462c0.774-1.79,1.7-3.671,2.774-5.64
		c1.075-1.971,2.507-4.326,4.298-7.073c0.358-0.716,0.329-1.791-0.089-3.224c-0.42-1.433-1.016-2.775-1.791-4.029
		c-0.777-1.253-1.583-2.207-2.418-2.864c-0.836-0.655-1.432-0.627-1.791,0.089l-1.073,1.254c-1.314,1.315-2.717,2.838-4.208,4.566
		c-1.494,1.731-2.986,3.553-4.476,5.461c-1.494,1.911-2.986,3.732-4.478,5.462c-1.495,1.731-2.837,3.254-4.029,4.565l-7.342,7.7
		c-0.298,0.548-0.565,1.077-0.814,1.593c-0.228,0.239-0.463,0.484-0.706,0.734c-1.853,1.911-3.912,3.971-6.178,6.178
		c-2.27,2.211-4.478,4.15-6.626,5.82c-2.269,1.791-4.239,3.285-5.908,4.477c-1.674,1.194-2.955,1.732-3.852,1.611
		c-0.895-0.117-1.314-0.954-1.252-2.507c0.059-1.55,0.743-4.178,2.059-7.879c1.551-4.298,3.162-7.938,4.834-10.923
		c1.672-2.982,3.103-5.848,4.297-8.596c0.359-0.596,0.836-1.459,1.434-2.596c0.597-1.133,1.075-2.387,1.434-3.76
		c0.358-1.371,0.537-2.804,0.537-4.298c0-1.491-0.358-2.894-1.075-4.208c-1.791-3.223-3.821-4.924-6.089-5.104
		c-2.269-0.18-4.447,0.33-6.534,1.521c-2.091,1.195-3.912,2.628-5.462,4.298c-1.553,1.673-2.507,2.628-2.865,2.865
		c-4.538,4.298-8.387,8.716-11.549,13.251c-3.166,4.538-6.239,9.432-9.223,14.684c1.191-3.104,2.355-6.089,3.492-8.953
		c1.133-2.865,2.176-5.252,3.133-7.163c0.238-0.716,0.596-1.671,1.074-2.865c0.477-1.191,0.896-2.507,1.254-3.938
		c0.358-1.434,0.507-2.894,0.447-4.388c-0.061-1.491-0.447-2.894-1.164-4.208c-1.789-3.223-3.82-4.924-6.088-5.104
		s-4.449,0.33-6.535,1.521c-2.091,1.195-3.88,2.628-5.372,4.298c-1.494,1.673-2.417,2.628-2.775,2.865
		c-4.538,4.298-8.417,8.536-11.64,12.714c-3.223,4.18-6.329,8.715-9.311,13.608c0.834-2.387,1.58-4.505,2.238-6.356
		c0.654-1.85,1.371-3.672,2.148-5.462c0.775-1.79,1.701-3.671,2.776-5.64c1.073-1.971,2.506-4.326,4.297-7.073
		c0.358-0.716,0.327-1.791-0.089-3.224c-0.422-1.433-1.017-2.775-1.792-4.029c-0.776-1.253-1.583-2.207-2.416-2.864
		c-0.837-0.655-1.433-0.627-1.792,0.089l-1.074,1.254c-1.315,1.315-2.717,2.838-4.208,4.566c-1.493,1.731-2.985,3.553-4.476,5.461
		c-1.495,1.911-2.984,3.732-4.478,5.462c-1.493,1.731-2.837,3.254-4.028,4.565l-7.342,7.7c-0.25,0.46-0.477,0.903-0.69,1.339
		c-0.301,0.324-0.6,0.646-0.921,0.988c-1.79,1.911-3.822,3.94-6.088,6.09c-2.27,2.147-4.477,4.117-6.625,5.908
		c-2.39,2.031-4.539,3.612-6.446,4.745c-1.911,1.136-3.106,1.226-3.582,0.269c-0.358-0.596-0.42-1.64-0.179-3.134
		c0.238-1.491,0.716-3.281,1.433-5.372c0.716-2.087,1.58-4.324,2.596-6.715c1.014-2.387,2.06-4.773,3.134-7.162
		c1.074-2.029,2.237-4.326,3.492-6.895c1.254-2.564,2.355-4.745,3.312-6.535c0.716-1.433,1.371-2.597,1.97-3.492
		c0.596-0.895,0.476-2.535-0.358-4.924c-0.957-2.982-2.001-4.477-3.134-4.477c-1.136,0-2.299,0.836-3.492,2.506
		c-1.074,1.791-2.238,3.762-3.492,5.91c-1.253,2.148-2.479,4.18-3.671,6.088c-0.12,0.24-1.015,1.494-2.686,3.761
		c-1.673,2.269-3.732,4.954-6.178,8.058c-2.448,3.105-5.014,6.268-7.699,9.49c-2.686,3.223-5.104,5.85-7.253,7.879
		c-2.27,2.148-4.387,3.761-6.357,4.835c-1.969,1.073-3.194,1.136-3.67,0.179c-0.358-0.596-0.419-1.64-0.179-3.134
		c0.238-1.491,0.717-3.281,1.433-5.372c0.716-2.087,1.581-4.324,2.596-6.715c1.013-2.387,2.06-4.773,3.134-7.162
		c1.074-2.029,2.238-4.326,3.492-6.895c1.253-2.564,2.355-4.745,3.312-6.535c0.716-1.433,1.371-2.597,1.97-3.492
		c0.596-0.895,0.476-2.535-0.358-4.924c-0.956-2.982-2-4.477-3.133-4.477c-1.136,0-2.3,0.836-3.493,2.506
		c-2.03,2.986-4.059,6.268-6.087,9.85c-2.03,3.581-3.939,7.252-5.729,11.012c-1.791,3.761-3.344,7.521-4.656,11.281
		c-1.315,3.76-2.149,7.313-2.508,10.654c-0.24,1.674-0.24,3.434,0,5.283c0.238,1.852,0.717,3.521,1.433,5.014
		c0.716,1.493,1.702,2.746,2.954,3.76c1.254,1.016,2.776,1.521,4.566,1.521c2.148,0.118,4.387-0.537,6.715-1.969
		c2.328-1.433,4.566-3.135,6.715-5.104s4.119-4.029,5.909-6.178c1.791-2.148,3.223-3.939,4.297-5.373
		c-0.598,5.015-0.21,9.343,1.164,12.982c1.371,3.643,3.85,5.521,7.431,5.641c1.908,0.118,3.909-0.416,5.999-1.611
		c2.087-1.191,4.118-2.597,6.088-4.207c1.971-1.612,3.82-3.313,5.552-5.104c1.729-1.79,3.134-3.281,4.208-4.476
		c0.716-0.717,1.79-1.819,3.223-3.312c0.827-0.861,1.587-1.789,2.294-2.77l9.703-10.213c-1.075,2.627-2.327,5.641-3.76,9.042
		c-1.433,3.403-3.286,7.493-5.552,12.267c-0.599,1.432-0.627,2.864-0.09,4.297s1.344,2.658,2.418,3.671
		c1.074,1.017,2.328,1.7,3.761,2.06c1.432,0.357,2.685,0.121,3.76-0.717h0.896c2.148-2.625,4.926-6.115,8.326-10.475
		c3.402-4.356,6.922-8.803,10.564-13.34c3.641-4.536,7.163-8.775,10.564-12.714c3.403-3.94,6.178-6.863,8.328-8.774
		c-1.433,2.627-2.628,5.104-3.582,7.432c-0.957,2.327-1.791,4.597-2.508,6.804c-0.716,2.21-1.432,4.417-2.148,6.626
		c-0.716,2.21-1.553,4.507-2.506,6.893c-1.912,5.015-2.865,9.343-2.865,12.982c0,3.643,1.432,5.521,4.297,5.641h0.358
		c0.716,0,1.281-0.089,1.7-0.268c0.418-0.18,0.866-0.449,1.344-0.807l-0.18-0.179l0.18-0.179l0.537-0.896
		c2.387-2.981,5.341-6.594,8.863-10.832c3.521-4.236,7.163-8.506,10.924-12.804c3.76-4.298,7.342-8.326,10.744-12.087
		c3.401-3.76,6.178-6.536,8.325-8.326c-1.431,2.627-2.716,5.104-3.85,7.432c-1.136,2.327-2.181,4.627-3.133,6.894
		c-0.958,2.269-1.791,4.565-2.508,6.894s-1.315,4.807-1.79,7.432c-0.479,2.148-0.779,4.27-0.896,6.356
		c-0.12,2.09,0.028,4.001,0.448,5.729c0.417,1.732,1.164,3.134,2.237,4.209c1.074,1.074,2.508,1.67,4.297,1.791
		c1.909,0.117,4.058-0.421,6.447-1.612c2.387-1.192,4.745-2.655,7.072-4.388c2.329-1.729,4.478-3.491,6.447-5.282
		c1.97-1.79,3.491-3.281,4.565-4.476c0.717-0.717,1.791-1.819,3.223-3.312c0.828-0.861,1.588-1.789,2.295-2.771l9.703-10.212
		c-1.074,2.627-2.328,5.641-3.762,9.042c-1.431,3.403-3.283,7.493-5.551,12.267c-0.598,1.432-0.626,2.864-0.089,4.297
		c0.536,1.433,1.343,2.658,2.417,3.671c1.074,1.017,2.328,1.7,3.761,2.06c1.433,0.357,2.687,0.121,3.76-0.717h0.896
		c2.149-2.625,4.925-6.115,8.326-10.475c3.403-4.356,6.924-8.803,10.565-13.34c3.64-4.536,7.163-8.775,10.564-12.714
		c3.403-3.94,6.177-6.863,8.327-8.774c-1.434,2.627-2.628,5.104-3.582,7.432c-0.956,2.327-1.791,4.597-2.507,6.804
		c-0.716,2.21-1.432,4.417-2.148,6.626c-0.716,2.21-1.553,4.507-2.507,6.893c-1.91,5.015-2.865,9.343-2.865,12.982
		c0,3.643,1.434,5.521,4.298,5.641h0.358c0.716,0,1.281-0.089,1.701-0.268c0.416-0.18,0.863-0.449,1.343-0.807l-0.18-0.179
		l0.18-0.179l0.536-0.896c2.387-2.981,5.342-6.594,8.865-10.832c3.518-4.236,7.161-8.506,10.923-12.804
		c3.76-4.298,7.341-8.326,10.744-12.087c3.402-3.76,6.177-6.536,8.326-8.326c-1.434,2.627-2.718,5.104-3.85,7.432
		c-1.137,2.327-2.181,4.627-3.135,6.894c-0.957,2.269-1.791,4.565-2.507,6.894s-1.315,4.807-1.791,7.432
		c-0.479,2.148-0.777,4.27-0.896,6.356c-0.12,2.09,0.028,4.001,0.448,5.729c0.417,1.732,1.163,3.134,2.238,4.209
		c1.074,1.074,2.507,1.67,4.298,1.791c1.907,0.117,4.058-0.421,6.445-1.612c2.388-1.192,4.746-2.655,7.073-4.388
		c2.328-1.729,4.478-3.491,6.447-5.282c1.312-1.192,2.422-2.251,3.336-3.179c-0.007,0.922,0.041,1.86,0.155,2.82
		c0.477,2.391,1.253,4.299,2.328,5.73c1.074,1.433,2.355,2.538,3.851,3.313c1.489,0.777,3.103,1.343,4.835,1.7
		c1.729,0.359,3.491,0.537,5.28,0.537c4.536,0.118,8.744-0.895,12.625-3.044c3.878-2.148,7.37-4.655,10.476-7.521
		c1.312-1.191,2.982-2.686,5.013-4.477c1.642-1.448,3.159-3.039,4.567-4.762c1.073-1.17,2.03-2.24,2.863-3.207
		c1.492-1.729,2.866-3.371,4.119-4.924c1.253-1.55,2.534-3.162,3.849-4.835c1.312-1.669,2.866-3.581,4.656-5.729
		c1.312-1.312,2.446-2.654,3.403-4.029c0.953-1.371,2.087-2.775,3.401-4.208c2.027,0.837,3.281,1.791,3.761,2.866
		c0.475,1.073,0.565,2.12,0.269,3.133c-0.299,1.016-0.807,1.942-1.523,2.775c-0.715,0.837-1.192,1.432-1.431,1.791
		c-2.39,3.343-4.539,6.508-6.447,9.49c-1.912,2.984-3.521,6.148-4.835,9.49c-0.836,2.268-1.075,4.775-0.717,7.521
		c0.477,2.39,1.492,4.507,3.047,6.356c1.548,1.853,3.876,2.896,6.981,3.135c2.386,0.116,4.805-0.418,7.252-1.613
		c2.446-1.191,4.505-2.444,6.178-3.76c1.552-1.312,3.014-2.624,4.387-3.939c1.372-1.312,2.894-2.686,4.565-4.118
		c1.313-1.192,2.835-2.745,4.567-4.655c1.73-1.908,3.224-3.908,4.477-5.999c1.254-2.087,2.06-4.146,2.418-6.178
		C686.025,107.126,685.495,105.287,684.081,103.622z M602.763,101.175c2.389-2.566,4.746-4.835,7.074-6.805
		c2.327-1.97,4.476-3.582,6.446-4.835c1.969-1.253,3.552-1.88,4.744-1.88c1.434,0,2.178,0.357,2.239,1.074
		c0.06,0.716-0.239,1.522-0.896,2.418c-0.657,0.895-1.404,1.791-2.237,2.686c-0.837,0.895-1.434,1.521-1.791,1.881
		c-2.628,2.747-5.94,5.281-9.938,7.609c-4.001,2.327-8.029,4.208-12.087,5.641C598.226,106.34,600.375,103.743,602.763,101.175z
		 M656.571,74.405c-0.777,1.553-1.673,3.106-2.686,4.655c-1.016,1.554-1.941,2.865-2.775,3.939c-0.717-0.475-0.807-1.49-0.269-3.043
		c0.537-1.551,1.312-3.134,2.328-4.745c1.012-1.612,2.028-3.045,3.043-4.298c1.014-1.253,1.641-1.88,1.881-1.88
		c0.475,0,0.537,0.509,0.179,1.522C657.916,71.57,657.348,72.855,656.571,74.405z"/>
	<path fill="#FFEF00" stroke="#231F20" stroke-width="0.6671" stroke-miterlimit="10" d="M684.058,103.591
		c0.009,0.011,0.015,0.021,0.023,0.031C684.081,103.604,684.077,103.591,684.058,103.591z"/>
	<path fill="#FFEF00" stroke="#231F20" stroke-width="0.6671" stroke-miterlimit="10" d="M356.361,13.707
		c-1.468-4.493-4.545-7.857-9.146-10c-4.405-2.048-9.708-3.175-15.764-3.35c-5.981-0.165-12.587,0.542-19.654,2.116
		c-7.031,1.568-14.114,3.822-21.052,6.698c-6.937,2.876-13.634,6.375-19.905,10.399c-6.303,4.046-11.708,8.588-16.067,13.501
		c-4.399,4.961-7.593,10.304-9.493,15.878c-1.941,5.691-1.988,11.612-0.129,17.63c0.982,2.949,2.905,6.046,5.712,9.202
		c2.723,3.063,5.905,6.204,9.459,9.333c3.543,3.121,7.362,6.299,11.35,9.447c3.948,3.119,7.711,6.205,11.184,9.174
		c3.431,2.936,6.446,5.805,8.962,8.525c2.396,2.593,3.92,5.025,4.528,7.229c1.083,3.944,1.041,7.296-0.121,9.959
		c-1.195,2.734-3.028,4.998-5.449,6.727c-2.501,1.785-5.409,3.158-8.642,4.076c-3.291,0.934-6.392,1.489-9.251,1.654
		c-0.897,0.074-2.302-0.074-4.159-0.422c-1.938-0.363-3.943-0.916-5.961-1.643c-1.989-0.717-3.819-1.621-5.438-2.688
		c-1.441-0.949-2.373-2.036-2.756-3.18c-0.464-1.592-0.325-2.882,0.426-3.946c0.854-1.21,2.163-2.216,3.893-2.987
		c1.841-0.822,4.06-1.4,6.596-1.716c2.583-0.323,5.288-0.385,8.043-0.182c2.753,0.201,5.489,0.653,8.132,1.345
		c2.602,0.68,4.929,1.589,6.914,2.703c0.222,0.123,0.461,0.183,0.7,0.183c0.006,0.001,0.007,0.005,0.021,0
		c0.791,0,1.431-0.642,1.431-1.432c0-0.468-0.224-0.883-0.57-1.144c-2.777-2.748-5.958-4.905-9.458-6.416
		c-3.516-1.52-7.086-2.511-10.61-2.945c-3.532-0.436-6.968-0.369-10.2,0.201c-3.288,0.576-6.161,1.643-8.536,3.17
		c-2.457,1.574-4.249,3.586-5.327,5.977c-1.109,2.459-1.195,5.279-0.257,8.373c0.906,3.081,2.453,5.709,4.598,7.81
		c2.064,2.021,4.384,3.716,6.896,5.038c2.488,1.309,5.079,2.305,7.7,2.96c2.603,0.651,4.99,1.025,7.044,1.11
		c0.873,0.07,1.765,0.105,2.651,0.105c0,0,0,0,0,0c3.541,0,7.239-0.563,10.989-1.674c4.699-1.393,8.896-3.559,12.476-6.439
		c3.617-2.91,6.347-6.516,8.116-10.715c1.808-4.295,1.91-9.143,0.301-14.41c-1.058-3.443-3.057-6.961-5.94-10.457
		c-2.807-3.4-6.06-6.783-9.669-10.053c-3.585-3.246-7.431-6.474-11.435-9.594c-3.943-3.068-7.708-6.094-11.191-8.99
		c-3.433-2.853-6.381-5.592-8.764-8.141c-2.262-2.416-3.676-4.669-4.196-6.68c-1.097-4.461-0.761-8.804,0.997-12.908
		c1.81-4.223,4.635-8.251,8.396-11.972c3.817-3.773,8.416-7.29,13.672-10.451c5.297-3.187,10.901-6.02,16.654-8.421
		c5.757-2.401,11.572-4.375,17.282-5.864c5.702-1.488,10.955-2.472,15.61-2.925c4.569-0.446,8.409-0.307,11.386,0.408
		c3.877,0.931,4.292,2.663,4.432,3.244c0.066,0.263,0.266,1.065-1.45,2.265c-1.598,1.118-3.783,2.28-6.498,3.455
		c-2.762,1.196-5.932,2.506-9.421,3.894c-3.525,1.401-7.03,3.014-10.417,4.793c-3.422,1.797-6.616,3.861-9.495,6.137
		c-2.963,2.343-5.193,5.067-6.628,8.096c-0.768,1.368-1.252,3.276-1.479,5.83c-0.236,2.64,0.439,5.382,2.01,8.151
		c0.287,0.504,0.851,0.79,1.423,0.714c0.575-0.072,1.05-0.484,1.203-1.043c1.186-4.347,3.281-7.965,6.226-10.754
		c3.039-2.876,6.556-5.343,10.452-7.334c3.973-2.027,8.131-3.896,12.361-5.557c4.323-1.694,8.326-3.629,11.899-5.752
		c1.05-0.53,2.358-1.315,3.89-2.336c1.568-1.045,3.073-2.24,4.475-3.554c1.44-1.351,2.611-2.799,3.478-4.303
		C356.824,17.059,357.003,15.302,356.361,13.707z"/>
</g>
<g>
	<path fill="#00A59F" stroke="#231F20" stroke-width="0.6671" stroke-miterlimit="10" d="M549.635,126.134h-4.771v-5.117h16.428
		v5.117h-4.732v26.047h-6.925V126.134z"/>
	<path fill="#00A59F" stroke="#231F20" stroke-width="0.6671" stroke-miterlimit="10" d="M565.717,150.045
		c-1.438-1.731-2.155-4.29-2.155-7.675v-11.581c0-3.386,0.718-5.931,2.155-7.637c1.436-1.706,3.834-2.559,7.194-2.559
		c3.386,0,5.803,0.86,7.252,2.578c1.448,1.718,2.174,4.258,2.174,7.617v11.581c0,3.385-0.726,5.943-2.174,7.675
		c-1.449,1.731-3.866,2.597-7.252,2.597C569.551,152.642,567.152,151.776,565.717,150.045z M574.834,146.774
		c0.309-0.654,0.462-1.545,0.462-2.674v-15.004c0-1.154-0.153-2.052-0.462-2.693c-0.308-0.641-0.948-0.962-1.923-0.962
		c-0.924,0-1.539,0.327-1.847,0.981c-0.309,0.654-0.462,1.545-0.462,2.674v15.004c0,1.129,0.141,2.02,0.423,2.674
		s0.91,0.981,1.886,0.981C573.886,147.756,574.526,147.429,574.834,146.774z"/>
	<path fill="#00A59F" stroke="#231F20" stroke-width="0.6671" stroke-miterlimit="10" d="M596.379,121.017h7.887
		c2.693,0,4.796,0.334,6.31,1.001c1.513,0.667,2.584,1.712,3.213,3.136c0.628,1.424,0.942,3.328,0.942,5.713v11.311
		c0,2.412-0.314,4.336-0.942,5.771c-0.629,1.437-1.693,2.5-3.193,3.193c-1.501,0.692-3.585,1.039-6.252,1.039h-7.964V121.017z
		 M604.343,147.409c1,0,1.737-0.146,2.212-0.441s0.775-0.719,0.904-1.271c0.128-0.551,0.192-1.366,0.192-2.442v-13.582
		c0-1-0.071-1.762-0.212-2.289c-0.141-0.525-0.449-0.916-0.923-1.173c-0.476-0.256-1.212-0.385-2.213-0.385h-1.038v21.583H604.343z"
		/>
	<path fill="#00A59F" stroke="#231F20" stroke-width="0.6671" stroke-miterlimit="10" d="M620.655,150.045
		c-1.438-1.731-2.155-4.29-2.155-7.675v-11.581c0-3.386,0.718-5.931,2.155-7.637c1.436-1.706,3.834-2.559,7.194-2.559
		c3.386,0,5.803,0.86,7.252,2.578c1.448,1.718,2.174,4.258,2.174,7.617v11.581c0,3.385-0.726,5.943-2.174,7.675
		c-1.449,1.731-3.866,2.597-7.252,2.597C624.489,152.642,622.091,151.776,620.655,150.045z M629.772,146.774
		c0.309-0.654,0.462-1.545,0.462-2.674v-15.004c0-1.154-0.153-2.052-0.462-2.693c-0.308-0.641-0.948-0.962-1.923-0.962
		c-0.924,0-1.539,0.327-1.847,0.981c-0.309,0.654-0.462,1.545-0.462,2.674v15.004c0,1.129,0.141,2.02,0.423,2.674
		s0.91,0.981,1.886,0.981C628.824,147.756,629.465,147.429,629.772,146.774z"/>
	<path fill="#00A59F" stroke="#231F20" stroke-width="0.6671" stroke-miterlimit="10" d="M651.318,121.017h6.887v26.508h7.155v4.656
		h-14.042V121.017z"/>
	<path fill="#00A59F" stroke="#231F20" stroke-width="0.6671" stroke-miterlimit="10" d="M668.399,121.017h6.887v31.164h-6.887
		V121.017z"/>
	<path fill="#00A59F" stroke="#231F20" stroke-width="0.6671" stroke-miterlimit="10" d="M681.576,150.276
		c-1.449-1.578-2.226-4.085-2.327-7.521l5.886-0.885c0.025,1.975,0.263,3.392,0.712,4.25c0.448,0.86,1.122,1.289,2.02,1.289
		c1.154,0,1.731-0.756,1.731-2.27c0-1.205-0.275-2.244-0.827-3.116s-1.417-1.808-2.597-2.809l-2.693-2.347
		c-1.385-1.205-2.431-2.404-3.136-3.598c-0.705-1.192-1.058-2.699-1.058-4.521c0-2.616,0.775-4.629,2.328-6.04
		c1.551-1.41,3.687-2.116,6.405-2.116c2.949,0,4.956,0.86,6.021,2.578s1.636,3.809,1.713,6.271l-5.925,0.731
		c-0.052-1.616-0.199-2.782-0.442-3.501c-0.244-0.718-0.776-1.064-1.597-1.039c-0.591,0-1.046,0.25-1.366,0.75
		c-0.321,0.5-0.48,1.059-0.48,1.674c0,1.104,0.25,2.008,0.75,2.713s1.25,1.507,2.25,2.404l2.578,2.27
		c1.539,1.385,2.731,2.796,3.578,4.232s1.27,3.143,1.27,5.117c0,1.461-0.34,2.789-1.02,3.981s-1.635,2.136-2.866,2.827
		c-1.231,0.693-2.654,1.039-4.271,1.039C685.237,152.642,683.025,151.853,681.576,150.276z"/>
	<path fill="#00A59F" stroke="#231F20" stroke-width="0.6671" stroke-miterlimit="10" d="M702.562,126.134h-4.771v-5.117h16.428
		v5.117h-4.732v26.047h-6.925V126.134z"/>
</g>
<g>
	<path fill="none" stroke="#00A59F" stroke-width="3" stroke-linecap="round" stroke-linejoin="round" stroke-miterlimit="10" d="
		M1.5,52.503c27.559,0,27.559,20,55.117,20c27.561,0,27.561-20,55.121-20c27.56,0,27.56,20,55.119,20c27.562,0,27.562-20,55.126-20
		s27.563,20,55.126,20"/>
</g>
</svg>
