<?xml version="1.0" encoding="utf-8"?>
<!-- Generator: Adobe Illustrator 15.1.0, SVG Export Plug-In . SVG Version: 6.00 Build 0)  -->
<!DOCTYPE svg PUBLIC "-//W3C//DTD SVG 1.1//EN" "http://www.w3.org/Graphics/SVG/1.1/DTD/svg11.dtd">
<svg version="1.1" xmlns="http://www.w3.org/2000/svg" xmlns:xlink="http://www.w3.org/1999/xlink" x="0px" y="0px"
	 width="2279.375px" height="1009.292px" viewBox="0 0 2279.375 1009.292" enable-background="new 0 0 2279.375 1009.292"
	 xml:space="preserve">
<g>
	<g>
		<path fill="#99E9C3" stroke="#231F20" stroke-miterlimit="10" d="M637.344,805.094c5.18-14.967,67.354,14.026,100.966-42.438
			c1.639-2.752,3.139-5.615,3.326-8.812c1.062-18.183-0.301-38.028-4.58-59.412c-32.291,26.325-85.153,22.28-84.943,5.961
			c0.195-15.076,45.232-2.412,70.594-30.376c3.955-4.362,5.137-10.583,3.204-16.145c-2.265-6.52-4.794-13.157-7.578-19.905
			c-0.274,0.255-0.53,0.514-0.825,0.768c-20.382,17.256-42.348,20.271-42.951,3.797c-0.604-16.473,39.839-11.844,28.82-36.836
			c0.006-0.002,0.011-0.004,0.015-0.005c-8.208-15.963-17.856-32.479-29.111-49.533c-16.44,11.274-33.896,20.034-51.657,27.884
			l0.003,0.003c-20.979,8.903,6.544,50.938,0,62.606c-8.308,14.814-33.917-27.456-20.979-53.703l0,0
			c-18.77,7.734-37.571,15.157-55.602,24.083c-10.328,5.112-18.463,13.891-22.74,24.591c-15.168,37.93,10.599,75.396-1.094,83.183
			c-10.859,7.234-37.279-49.62-15.313-84.23c-9.35,6.979-18.247,14.898-26.545,24.1c-5.769,6.396-10.878,13.154-15.312,20.153
			c0.053-0.062,0.129-0.15,0.129-0.15c-24.765,55.776,65.157,104.266,56.419,121.225c-9.571,18.575-70.888-27.585-73.869-77.305
			c-0.074-1.229-0.062-2.452-0.021-3.672c-14.732,58.444,13.933,118.619,95.735,125.009
			c45.373,70.765,146.873,51.923,184.316-32.651C693.044,826.612,631.166,822.94,637.344,805.094z M715.981,746.511
			c3.411,8.375-17.638,17.011-22.323,6.862C688.972,743.226,712.57,738.135,715.981,746.511z M657.857,745.591
			c12.49,0.171,23.855-2.147,24.102,7.006c0.426,15.792-59.539,16.24-57.949-2.316C625.2,736.383,644.814,745.413,657.857,745.591z
			 M542.821,756.864c-7.55,7.075-25.397-11.879-16.474-21.039C535.271,726.663,550.371,749.791,542.821,756.864z M565.998,635.646
			c9.156-3.182,11.433,14.562,14.127,29.438c3.72,20.541,21.273,42.078,7.876,48.723
			C570.115,722.675,550.199,641.14,565.998,635.646z M599.552,848.61c-3.446,9.756-28.016,1.147-24.312-11.093
			C578.945,825.276,602.998,838.853,599.552,848.61z M605.722,851.036c2.238-12.928,22.056-1.329,38.274-1.692
			c11.747-0.264,25.562-1.4,25.054,7.196C668.174,871.374,602.735,868.297,605.722,851.036z"/>
		<g>
			<path fill="#FFD600" stroke="#231F20" stroke-miterlimit="10" d="M871.257,816.113c0,0,58.312-1.249,51.164-57.693
				c-1.532-12.098-8.918-24.899-19.047-38.997c-16.676,13.646-42.464,20.773-42.464,20.773s19.359-16.807,29.588-37.842
				c-9.44-12.158-19.864-25.299-29.708-39.726c-10.754,19.486-31.953,26.276-31.953,26.276s19.57-13.326,23.621-39.1
				c-1.621-2.628-3.211-5.298-4.762-8.01c-14.871,22.533-41.633,27.872-41.633,27.872s25.553-13.479,33.066-44.26
				c-0.989-2.092-1.944-4.211-2.871-6.352c-17.183,10.636-39.486,15.354-39.486,15.354s21.08-13.191,32.938-32.643
				c-4.281-13.2-7.189-27.289-8.135-42.379c-16.4,6.568-33.664,8.646-33.664,8.646s20.436-12.962,33.751-31.376
				c1.384-19.98,6.239-41.585,15.782-65.066c-49.928,4.184-96.96,34.47-125.666,81.459c6.062,22.813,22.304,43.268,22.304,43.268
				s-19.055-9.324-33.037-22.999c-13.854,30.457-20.532,66.319-16.809,105.657c24.419,13.475,48.614,7.382,48.614,7.382
				s-21.748,12.899-46.676,7.787c0.569,3.559,1.228,7.144,1.969,10.751c19.469,13.816,40.631,10.992,40.631,10.992
				s-17.809,8.004-37.339,3.024c6.916,26.218,18.394,53.559,35.312,81.544c4.734,7.83,10.01,14.969,15.646,21.422
				c27.126-2.263,43.712-19.948,43.712-19.948s-10.708,21.312-33.076,30.922c3.479,3.203,7.052,6.152,10.692,8.841
				c20.957-0.891,34.892-12.702,34.892-12.702s-8.338,12.774-23.481,20.127C813.408,870.941,855.564,864.124,871.257,816.113z"/>
			<path fill="#87B631" stroke="#1D1D1B" stroke-width="1.8453" stroke-miterlimit="10" d="M837.445,471.593
				c0,0-1.736,0.846-4.99,2.428c-3.162,1.741-7.863,4.228-13.295,8.231c-5.443,3.954-11.714,9.27-17.937,16.266
				c-6.159,7.033-12.403,15.629-17.653,25.859c-2.685,5.079-5.117,10.56-7.275,16.358c-2.201,5.783-4.092,11.905-5.641,18.294
				c-3.186,12.753-4.96,26.578-5.312,40.893c-0.139,7.159,0.037,14.442,0.606,21.786c0.606,7.341,1.557,14.739,2.835,22.139
				c1.336,7.392,3.025,14.772,5.005,22.104c2.029,7.319,4.412,14.563,7.034,21.716c5.382,14.258,11.906,28.068,19.438,41.023
				c7.443,13.004,15.918,25.112,24.771,36.277c8.857,11.17,18.212,21.322,27.6,30.398c9.388,9.08,18.752,17.149,27.744,24.148
				c8.998,6.994,17.543,13.011,25.272,18.106c3.89,2.511,7.545,4.837,10.959,6.932c3.451,2.037,6.583,3.968,9.477,5.604
				c2.899,1.625,5.488,3.074,7.741,4.337c2.281,1.21,4.222,2.238,5.795,3.072c3.151,1.659,4.832,2.543,4.832,2.543l-6.472,12.265
				c0,0-1.71-0.961-4.913-2.764c-1.6-0.905-3.57-2.022-5.889-3.337c-2.287-1.367-4.916-2.939-7.861-4.7
				c-2.937-1.771-6.117-3.855-9.616-6.057c-3.462-2.261-7.169-4.767-11.108-7.47c-7.828-5.484-16.475-11.94-25.556-19.421
				c-9.077-7.481-18.509-16.082-27.928-25.72c-9.421-9.635-18.772-20.373-27.577-32.14c-8.801-11.761-17.172-24.473-24.453-38.063
				c-7.369-13.54-13.676-27.92-18.785-42.701c-2.486-7.416-4.719-14.913-6.588-22.47c-1.818-7.571-3.334-15.179-4.488-22.779
				c-1.097-7.611-1.855-15.204-2.264-22.724c-0.372-7.523-0.344-14.968,0.004-22.271c0.77-14.604,2.977-28.645,6.586-41.542
				c1.76-6.459,3.859-12.636,6.262-18.455c2.36-5.835,4.988-11.332,7.858-16.412c5.62-10.234,12.194-18.766,18.615-25.694
				c6.487-6.895,12.956-12.068,18.54-15.89c5.567-3.869,10.356-6.231,13.57-7.885C835.685,472.389,837.445,471.593,837.445,471.593z
				"/>
		</g>
		<g>
			<path fill="#FFD600" stroke="#231F20" stroke-miterlimit="10" d="M2162.527,473.94c0,0,49.942-30.128,15.629-75.512
				c-7.354-9.727-20.135-17.148-35.939-24.328c-7.663,20.139-26.475,39.164-26.475,39.164s8.416-24.216,6.808-47.551
				c-14.242-5.841-29.825-12.043-45.547-19.65c0.381,22.254-14.62,38.701-14.62,38.701s10.333-21.304,1.008-45.67
				c-2.715-1.472-5.423-2.995-8.119-4.574c-1.671,26.946-22.218,44.905-22.218,44.905s15.444-24.415,6.628-54.849
				c-1.9-1.321-3.784-2.683-5.653-4.077c-9.603,17.781-26.592,32.981-26.592,32.981s11.708-21.938,12.302-44.711
				c-10.287-9.313-19.826-20.082-28.162-32.696c-10.95,13.865-24.885,24.266-24.885,24.266s11.265-21.418,13.639-44.018
				c-8.752-18.015-15.303-39.167-18.724-64.281c-41.21,28.496-66.907,78.184-68.395,133.228
				c16.62,16.763,40.892,26.409,40.892,26.409s-21.168,1.405-40.104-3.487c3.157,33.311,15.229,67.733,38.052,99.99
				c27.886-0.479,45.831-17.813,45.831-17.813s-12.433,22.018-36.595,30.001c2.267,2.802,4.622,5.583,7.062,8.342
				c23.763,2.283,40.707-10.706,40.707-10.706s-11.456,15.811-30.871,21.221c19.056,19.289,42.626,37.28,71.235,53.121
				c8.005,4.431,16.136,7.993,24.236,10.782c22.395-15.474,27.968-39.07,27.968-39.07s1.331,23.814-13.279,43.288
				c4.612,1.045,9.18,1.822,13.675,2.341c17.729-11.211,23.929-28.394,23.929-28.394s-0.867,15.229-10.336,29.148
				C2139.673,550.297,2172.832,523.388,2162.527,473.94z"/>
			<path fill="#87B631" stroke="#1D1D1B" stroke-width="1.8453" stroke-miterlimit="10" d="M1961.606,192.041
				c0,0-1.084,1.598-3.118,4.59c-1.874,3.085-4.713,7.583-7.428,13.76c-2.751,6.141-5.541,13.873-7.452,23.039
				c-1.838,9.166-2.971,19.729-2.427,31.216c0.201,5.741,0.822,11.705,1.839,17.809c0.972,6.111,2.382,12.361,4.221,18.673
				c3.59,12.645,8.938,25.517,15.762,38.104c3.445,6.277,7.226,12.505,11.377,18.59c4.183,6.063,8.691,12.005,13.485,17.785
				c4.84,5.744,9.981,11.303,15.35,16.674c5.406,5.337,11.08,10.431,16.916,15.327c11.769,9.683,24.305,18.408,37.288,25.891
				c12.932,7.568,26.312,13.848,39.55,19.119c13.244,5.273,26.412,9.418,39.073,12.612c12.663,3.197,24.802,5.53,36.086,7.12
				c11.286,1.583,21.692,2.544,30.933,3.113c4.623,0.239,8.951,0.436,12.955,0.552c4.008,0.048,7.686,0.162,11.01,0.14
				c3.323-0.035,6.29-0.068,8.873-0.095c2.58-0.088,4.775-0.162,6.555-0.223c3.559-0.131,5.457-0.202,5.457-0.202l0.496,13.858
				c0,0-1.961,0.019-5.637,0.051c-1.838,0.012-4.104,0.024-6.768,0.04c-2.664-0.047-5.727-0.101-9.158-0.16
				c-3.429-0.073-7.225-0.296-11.355-0.462c-4.128-0.236-8.59-0.562-13.353-0.944c-9.521-0.856-20.233-2.148-31.833-4.111
				c-11.598-1.967-24.061-4.727-37.028-8.392c-12.968-3.662-26.426-8.316-39.921-14.134c-13.489-5.814-27.08-12.668-40.163-20.826
				c-13.134-8.07-25.765-17.398-37.558-27.67c-5.851-5.192-11.521-10.582-16.904-16.203c-5.349-5.66-10.452-11.501-15.238-17.518
				c-4.742-6.053-9.182-12.259-13.281-18.576c-4.07-6.339-7.754-12.808-11.09-19.314c-6.606-13.046-11.687-26.32-14.98-39.303
				c-1.691-6.477-2.947-12.879-3.763-19.121c-0.86-6.235-1.319-12.311-1.36-18.146c-0.225-11.674,1.227-22.347,3.344-31.553
				c2.19-9.21,5.223-16.918,8.162-23.013c2.9-6.128,5.876-10.562,7.84-13.596C1960.476,193.607,1961.606,192.041,1961.606,192.041z"
				/>
		</g>
		<path fill="#99E9C3" stroke="#231F20" stroke-miterlimit="10" d="M1167.169,829.736c37.443,84.574,138.942,103.416,184.316,32.651
			c81.801-6.39,110.467-66.564,95.734-125.009c0.041,1.22,0.053,2.443-0.021,3.672c-2.981,49.72-64.299,95.88-73.869,77.305
			c-8.736-16.959,81.184-65.448,56.42-121.225c0,0,0.076,0.089,0.129,0.15c-4.435-6.999-9.543-13.757-15.312-20.153
			c-8.297-9.201-17.195-17.121-26.545-24.1c21.966,34.61-4.453,91.465-15.314,84.23c-11.691-7.786,14.074-45.253-1.092-83.183
			c-4.279-10.7-12.412-19.479-22.741-24.591c-18.03-8.926-36.832-16.349-55.603-24.083l0,0
			c12.938,26.247-12.671,68.518-20.979,53.703c-6.545-11.669,20.979-53.703,0-62.606l0.003-0.003
			c-17.761-7.85-35.216-16.609-51.657-27.884c-11.255,17.054-20.903,33.57-29.111,49.533c0.004,0.001,0.01,0.003,0.014,0.005
			c-11.018,24.992,29.426,20.363,28.821,36.836c-0.604,16.474-22.569,13.459-42.95-3.797c-0.295-0.254-0.551-0.513-0.826-0.768
			c-2.785,6.748-5.312,13.386-7.578,19.905c-1.933,5.562-0.752,11.782,3.204,16.145c25.361,27.964,70.399,15.3,70.593,30.376
			c0.211,16.319-52.652,20.364-84.943-5.961c-4.279,21.384-5.643,41.229-4.578,59.412c0.186,3.197,1.687,6.061,3.325,8.812
			c33.611,56.464,95.786,27.471,100.966,42.438C1263.751,839.394,1201.874,843.066,1167.169,829.736z M1201.261,769.828
			c-4.686,10.148-25.736,1.513-22.324-6.862C1182.348,754.589,1205.945,759.68,1201.261,769.828z M1270.909,766.735
			c1.589,18.557-58.375,18.108-57.949,2.316c0.246-9.153,11.611-6.835,24.102-7.006
			C1250.104,761.867,1269.718,752.837,1270.909,766.735z M1368.572,752.279c8.922,9.16-8.924,28.114-16.475,21.039
			C1344.546,766.245,1359.648,743.117,1368.572,752.279z M1306.917,730.26c-13.396-6.645,4.156-28.182,7.876-48.723
			c2.694-14.876,4.971-32.619,14.128-29.438C1344.719,657.594,1324.802,739.129,1306.917,730.26z M1319.677,853.971
			c3.704,12.24-20.865,20.849-24.311,11.093C1291.92,855.307,1315.973,841.73,1319.677,853.971z M1225.867,872.994
			c-0.508-8.597,13.309-7.46,25.055-7.196c16.219,0.363,36.036-11.235,38.274,1.692
			C1292.183,884.751,1226.744,887.828,1225.867,872.994z"/>
		<g>
			<g>
				<path fill="#FF5572" stroke="#231F20" stroke-miterlimit="10" d="M1961.097,512.534c-0.526-1.404-1.02-2.827-1.536-4.237
					c-3.953-25.53-19.398-116.838-37.838-115.428c-18.68,1.428,8.278,73.126,36.433,118.228c0.502,1.385,0.994,2.769,1.508,4.15
					c-1.316,2.502-2.048,3.93-2.048,3.93c0.897-0.7,1.802-1.42,2.709-2.146l0.022,0.058l0.215-0.247
					c41.486-33.313,90.944-92.703,73.689-100.206C2017.474,409.344,1973.748,488.73,1961.097,512.534z"/>
				<path fill="#FF5572" stroke="#231F20" stroke-miterlimit="10" d="M1834.486,843.851c-0.778-1.541-1.94-3.846-3.392-6.76
					c-7.615-29.871-31.312-116.368-49.647-113.253c-18.623,3.166,13.244,70.315,45.713,114.767c1.259,2.76,2.29,4.998,3.034,6.606
					l0.228,3.418c0,0,3.911-0.33,10.377-0.944c54.724,5.951,128.817,0.044,122.265-17.674
					c-6.451-17.442-93.233,5.198-122.917,13.511C1837.931,843.655,1836.019,843.766,1834.486,843.851z"/>
				<path fill="#FF5572" stroke="#231F20" stroke-miterlimit="10" d="M1843.073,807.062c2.311,6.07,3.746,9.724,3.746,9.724
					l4.206-1.739c0,0-1.499-3.466-3.928-9.242c-5.68-30.297-23.766-118.14-42.263-116.209
					C1786.046,691.555,1813.528,760.618,1843.073,807.062z"/>
				<path fill="#FF5572" stroke="#231F20" stroke-miterlimit="10" d="M1863.444,770.165c2.285,6.042,3.724,9.724,3.724,9.724
					l4.207-1.739c0,0-1.51-3.471-3.929-9.213c-5.365-28.46-21.763-107.299-38.531-105.549
					C1811.817,665.171,1836.581,727.66,1863.444,770.165z"/>
				<path fill="#FF5572" stroke="#231F20" stroke-miterlimit="10" d="M1881,739.095c2.285,6.043,3.726,9.725,3.726,9.725
					l4.204-1.738c0,0-1.509-3.474-3.929-9.214c-5.364-28.459-21.762-107.299-38.53-105.55
					C1829.375,634.103,1854.137,696.592,1881,739.095z"/>
				<path fill="#FF5572" stroke="#231F20" stroke-miterlimit="10" d="M1896.811,703.679c2.264,6.025,3.704,9.719,3.704,9.719
					l4.204-1.739c0,0-1.517-3.479-3.927-9.183c-5.108-26.955-20.169-98.689-35.565-97.083
					C1849.471,607.039,1872.08,664.314,1896.811,703.679z"/>
				<path fill="#FF5572" stroke="#231F20" stroke-miterlimit="10" d="M1847.637,818.729l0.868,4.467c0,0,3.84-0.815,10.178-2.237
					c55.036-0.968,127.803-16.13,119.077-32.884c-8.591-16.495-91.843,16.862-120.248,28.834
					C1851.353,818.069,1847.637,818.729,1847.637,818.729z"/>
				<path fill="#FF5572" stroke="#231F20" stroke-miterlimit="10" d="M1876.958,782.436c-6.027,1.718-9.668,2.714-9.668,2.714
					l0.635,2.186l0.637,2.186c0,0,3.749-1.166,9.932-3.158c54.719-5.986,125.797-27.728,115.578-43.614
					C1984.013,727.107,1904.15,767.923,1876.958,782.436z"/>
				<path fill="#FF5572" stroke="#231F20" stroke-miterlimit="10" d="M1892.053,748.404c-5.883,2.16-9.441,3.424-9.441,3.424
					l0.797,2.132l0.797,2.131c0,0,3.651-1.439,9.668-3.884c54.124-10.027,123.396-36.977,112.029-52.064
					C1994.711,685.291,1918.095,731.916,1892.053,748.404z"/>
				<path fill="#FF5572" stroke="#231F20" stroke-miterlimit="10" d="M1906.725,711.634c-5.615,2.785-9.014,4.424-9.014,4.424
					l2.043,4.066c0,0,3.475-1.826,9.193-4.907c52.722-15.827,118.67-50.112,105.736-63.881
					C2001.951,637.783,1930.831,692.423,1906.725,711.634z"/>
				<path fill="#FF5572" stroke="#231F20" stroke-miterlimit="10" d="M1924.344,667.5c-2.104,1.338-3.873,2.452-5.246,3.316
					c-0.727-1.556-1.769-3.797-3.041-6.565c-5.941-26.78-23.227-98.014-38.567-95.93c-15.696,2.136,8.684,58.68,34.626,97.257
					c2.451,5.952,4.005,9.601,4.005,9.601l0.949-0.429l1.241,1.929c0,0,3.262-2.184,8.623-5.852
					c50.754-21.307,112.711-62.367,98.396-74.691C2011.235,584,1946.287,645.849,1924.344,667.5z"/>
				<path fill="#FF5572" stroke="#231F20" stroke-miterlimit="10" d="M1939.742,614.589c-2.059,1.573-3.77,2.868-5.083,3.861
					c-0.844-1.255-1.875-2.797-3.066-4.587c-9.74-24.796-36.548-89.184-50.727-84.942c-14.535,4.347,16.777,54.097,47.05,86.853
					c3.325,5.484,5.427,8.858,5.427,8.858l0.989-0.646l0.198,0.256c0,0,0.885-0.71,2.48-2.007l0.143-0.094
					c0,0-0.01-0.012-0.01-0.013c1.361-1.109,3.216-2.621,5.463-4.467c46.536-24.548,101.84-68.584,87.217-79.12
					C2015.454,528.191,1959.127,591.855,1939.742,614.589z"/>
				<path fill="#FF5572" stroke="#231F20" stroke-miterlimit="10" d="M1952.98,561.683c-1.411,1.343-2.641,2.507-3.679,3.486
					c-0.737-1.414-1.67-3.206-2.771-5.338c-7.794-28.844-31.461-110.488-48.878-107.279c-17.727,3.264,13.418,66.732,44.975,108.832
					c1.402,2.971,2.53,5.335,3.304,6.954c-0.156,0.146-0.245,0.229-0.245,0.229l0.708,0.735c0.462,0.959,0.717,1.484,0.717,1.484
					l0.479-0.244l1.253,1.302c0,0,2.785-2.785,7.316-7.414c43.607-29.44,93.822-79.204,78.144-88.096
					C2018.898,467.599,1969.793,536.984,1952.98,561.683z"/>
				<path fill="#FF5572" stroke="#231F20" stroke-miterlimit="10" d="M2016.129,353.038c-16.984-3.317-41.342,80.75-47.425,102.798
					c-0.41,0.798-0.815,1.597-1.228,2.392l-0.405-1.148c-2.039-26.331-9.66-107.245-26.329-107.293
					c-17.844-0.05,3.428,72.036,26.912,115.479c0,0-0.047-0.765-0.142-2.149l0.775-1.511c0.804-1.564,1.583-3.142,2.38-4.709
					C2001.19,418.354,2033.016,356.334,2016.129,353.038z"/>
			</g>
			<path fill="#FFB200" stroke="#231F20" stroke-miterlimit="10" d="M1813.564,859.557c0,0,1.324-1.595,3.809-4.586
				c1.223-1.498,2.814-3.331,4.532-5.517c1.681-2.191,3.613-4.712,5.777-7.533c4.256-5.733,9.336-12.852,14.819-21.23
				c2.808-4.149,5.532-8.747,8.551-13.492c2.905-4.818,5.917-9.918,9.004-15.272c2.976-5.42,6.227-10.984,9.273-16.92
				c1.554-2.951,3.136-5.952,4.741-9.001c1.539-3.082,3.101-6.212,4.688-9.387c0.792-1.586,1.59-3.183,2.392-4.791
				c0.77-1.625,1.545-3.261,2.325-4.905c1.56-3.291,3.136-6.624,4.731-9.99c1.528-3.4,3.073-6.837,4.633-10.308
				c0.777-1.735,1.562-3.479,2.345-5.231c0.754-1.767,1.511-3.54,2.27-5.323c6.196-14.204,12.006-29.14,17.736-44.38
				c5.624-15.28,10.994-30.935,15.968-46.719c4.889-15.808,9.578-31.69,13.595-47.485c2.13-7.866,3.912-15.753,5.811-23.512
				c0.912-3.888,1.726-7.773,2.586-11.621c0.842-3.849,1.716-7.666,2.438-11.478c0.757-3.809,1.507-7.585,2.251-11.324
				c0.761-3.735,1.347-7.467,2.02-11.142c0.631-3.684,1.342-7.312,1.884-10.923c0.555-3.61,1.104-7.175,1.646-10.691
				c0.571-3.514,1.041-6.992,1.472-10.423c0.447-3.429,0.888-6.806,1.319-10.128c0.784-6.651,1.414-13.092,2.07-19.272
				c0.484-6.194,0.946-12.132,1.388-17.778c0.292-5.657,0.569-11.023,0.832-16.067c0.113-5.048,0.22-9.773,0.317-14.146
				c0.114-4.368-0.032-8.383-0.031-12.011c0.026-7.258-0.353-12.948-0.488-16.833c-0.166-3.885-0.253-5.956-0.253-5.956
				s0.122,2.068,0.355,5.95c0.203,3.882,0.68,9.57,0.777,16.831c0.06,3.629,0.274,7.646,0.236,12.021
				c-0.023,4.376-0.048,9.11-0.076,14.167c-0.175,5.055-0.36,10.435-0.557,16.104c-0.343,5.665-0.707,11.62-1.084,17.836
				c-0.552,6.199-1.071,12.669-1.741,19.35c-0.379,3.335-0.761,6.728-1.149,10.172c-0.373,3.447-0.785,6.943-1.297,10.476
				c-0.482,3.536-0.972,7.12-1.468,10.747c-0.481,3.633-1.131,7.282-1.7,10.985c-0.61,3.697-1.135,7.45-1.835,11.211
				c-0.68,3.765-1.369,7.563-2.062,11.394c-0.66,3.841-1.47,7.682-2.25,11.56c-0.796,3.874-1.546,7.788-2.395,11.705
				c-1.771,7.816-3.425,15.764-5.427,23.695c-3.759,15.924-8.193,31.949-12.832,47.912c-4.724,15.941-9.85,31.763-15.24,47.225
				c-5.5,15.42-11.087,30.546-17.079,44.955c-0.735,1.808-1.465,3.608-2.194,5.399c-0.76,1.778-1.518,3.549-2.271,5.311
				c-1.513,3.522-3.01,7.011-4.489,10.463c-1.55,3.424-3.082,6.81-4.598,10.153c-0.757,1.674-1.512,3.335-2.261,4.987
				c-0.781,1.638-1.559,3.264-2.331,4.877c-1.544,3.23-3.068,6.417-4.568,9.556c-1.569,3.105-3.112,6.166-4.632,9.174
				c-2.976,6.052-6.169,11.736-9.085,17.273c-3.033,5.474-5.994,10.694-8.859,15.633c-2.983,4.874-5.669,9.581-8.452,13.855
				c-5.439,8.63-10.475,15.953-14.768,21.943c-2.204,2.974-4.17,5.63-5.881,7.94c-1.729,2.273-3.253,4.089-4.461,5.622
				c-2.433,3.033-3.729,4.65-3.729,4.65L1813.564,859.557z"/>
		</g>
		<g>
			<g>
				<path fill="#FF5572" stroke="#231F20" stroke-miterlimit="10" d="M1994.511,127.816c-1.483-0.22-2.967-0.478-4.451-0.709
					c-24.249-8.91-111.609-39.632-119.309-22.817c-7.801,17.033,67.982,28.184,121.077,25.403c1.454,0.232,2.903,0.472,4.361,0.691
					c1.551,2.364,2.445,3.695,2.445,3.695c-0.178-1.124-0.369-2.264-0.564-3.409l0.062,0.009l-0.112-0.309
					c-9.045-52.432-37.04-124.469-51.963-113.01C1931.551,28.506,1979.816,105.218,1994.511,127.816z"/>
				<path fill="#FF5572" stroke="#231F20" stroke-miterlimit="10" d="M2223.017,399.085c-1.726-0.066-4.305-0.166-7.557-0.309
					c-29.821-7.809-116.971-28.982-123.128-11.433c-6.252,17.825,67.93,22.479,122.546,15.608c3.023,0.236,5.481,0.418,7.249,0.546
					l3.101,1.457c0,0,1.605-3.581,4.201-9.535c31.717-44.99,62.443-112.671,43.77-115.521
					c-18.385-2.807-40.619,84.08-47.729,114.075C2224.514,395.976,2223.685,397.703,2223.017,399.085z"/>
				<path fill="#FF5572" stroke="#231F20" stroke-miterlimit="10" d="M2194.993,373.75c6.43,0.92,10.321,1.434,10.321,1.434
					l0.516-4.522c0,0-3.758-0.367-9.987-1.041c-29.256-9.709-114.864-36.442-122.136-19.325
					C2066.319,367.681,2140.049,377.097,2194.993,373.75z"/>
				<path fill="#FF5572" stroke="#231F20" stroke-miterlimit="10" d="M2172.583,338.054c6.393,0.929,10.311,1.453,10.311,1.453
					l0.516-4.522c0,0-3.768-0.36-9.963-1.026c-27.496-9.094-104.41-32.942-111.002-17.426
					C2055.722,332.355,2122.385,340.963,2172.583,338.054z"/>
				<path fill="#FF5572" stroke="#231F20" stroke-miterlimit="10" d="M2153.909,307.644c6.394,0.929,10.312,1.452,10.312,1.452
					l0.517-4.521c0,0-3.771-0.362-9.964-1.026c-27.495-9.095-104.41-32.943-111.003-17.427
					C2037.049,301.944,2103.712,310.554,2153.909,307.644z"/>
				<path fill="#FF5572" stroke="#231F20" stroke-miterlimit="10" d="M2130.585,276.656c6.367,0.938,10.297,1.468,10.297,1.468
					l0.515-4.521c0,0-3.778-0.359-9.936-1.014c-26.056-8.589-96.106-30.166-102.159-15.918
					C2023.109,271.251,2084.167,279.22,2130.585,276.656z"/>
				<path fill="#FF5572" stroke="#231F20" stroke-miterlimit="10" d="M2207.411,375.41l4.328,1.404c0,0,1.147-3.754,2.974-9.987
					c25.815-48.615,47.803-119.618,28.92-120.102c-18.593-0.476-29.742,88.515-33.03,119.164
					C2208.633,371.839,2207.411,375.41,2207.411,375.41z"/>
				<path fill="#FF5572" stroke="#231F20" stroke-miterlimit="10" d="M2189.865,332.177c-1.417,6.105-2.309,9.772-2.309,9.772
					l2.219,0.504l2.221,0.502c0,0,0.796-3.845,2.049-10.219c21.271-50.769,36.686-123.482,17.837-122.239
					C2193.326,211.719,2190.342,301.359,2189.865,332.177z"/>
				<path fill="#FF5572" stroke="#231F20" stroke-miterlimit="10" d="M2167.406,302.485c-0.96,6.192-1.578,9.918-1.578,9.918
					l2.251,0.335l2.25,0.336c0,0,0.51-3.892,1.286-10.34c17.448-52.206,27.432-125.862,8.726-123.228
					C2161.926,182.102,2165.598,271.714,2167.406,302.485z"/>
				<path fill="#FF5572" stroke="#231F20" stroke-miterlimit="10" d="M2142.347,271.836c-0.283,6.262-0.496,10.028-0.496,10.028
					l4.547,0.183c0,0,0.086-3.924,0.16-10.42c11.695-53.789,13.651-128.091-4.66-123.447
					C2123.873,152.753,2137.219,241.442,2142.347,271.836z"/>
				<path fill="#FF5572" stroke="#231F20" stroke-miterlimit="10" d="M2112.273,235.042c0.15,2.489,0.27,4.576,0.359,6.196
					c-1.713-0.118-4.178-0.292-7.217-0.521c-26.306-7.776-96.996-27.164-102.604-12.733c-5.735,14.766,55.541,20.83,101.856,16.824
					c6.395,0.739,10.339,1.147,10.339,1.147l0.085-1.038l2.289-0.151c0,0-0.33-3.911-0.941-10.378
					c5.947-54.723,0.043-128.816-17.674-122.263C2081.321,118.578,2103.962,205.357,2112.273,235.042z"/>
				<path fill="#FF5572" stroke="#231F20" stroke-miterlimit="10" d="M2073.446,195.939c0.379,2.563,0.683,4.688,0.915,6.317
					c-1.506,0.13-3.355,0.286-5.498,0.461c-26.41-3.491-95.725-11.232-98.884,3.226c-3.239,14.821,55.453,11.53,98.773,0.916
					c6.409-0.252,10.379-0.456,10.379-0.456l-0.086-1.178l0.32-0.05c0,0-0.192-1.118-0.554-3.143l-0.014-0.17
					c0,0-0.015,0.003-0.016,0.003c-0.311-1.729-0.734-4.083-1.261-6.943c1.069-52.603-10.662-122.317-26.964-114.629
					C2034.542,87.849,2062.949,167.966,2073.446,195.939z"/>
				<path fill="#FF5572" stroke="#231F20" stroke-miterlimit="10" d="M2033.576,158.728c0.491,1.885,0.914,3.524,1.268,4.906
					c-1.594-0.039-3.613-0.092-6.012-0.162c-29.009-7.154-111.898-26.003-117.529-9.212c-5.732,17.089,64.879,20.591,116.996,13.38
					c3.278,0.212,5.894,0.37,7.685,0.479c0.053,0.207,0.081,0.324,0.081,0.324l0.986-0.263c1.062,0.061,1.646,0.092,1.646,0.092
					l0.019-0.537l1.746-0.466c0,0-1.087-3.785-2.941-9.992c-4.629-52.411-23.837-120.448-39.211-111.039
					C1983.203,55.482,2020.114,132.053,2033.576,158.728z"/>
				<path fill="#FF5572" stroke="#231F20" stroke-miterlimit="10" d="M1881.641,2.405c-11.13,13.251,50.614,75.286,66.955,91.288
					c0.499,0.746,1.001,1.487,1.497,2.233l-1.201-0.202c-24.022-10.973-98.5-43.504-106.617-28.945
					c-8.688,15.586,64.68,31.9,114.062,32.401c0,0-0.691-0.329-1.948-0.917l-0.946-1.41c-0.979-1.461-1.981-2.907-2.967-4.363
					C1931.544,47.117,1892.707-10.771,1881.641,2.405z"/>
			</g>
			<path fill="#FFB200" stroke="#231F20" stroke-miterlimit="10" d="M2226.621,424.997c0,0-0.753-1.931-2.166-5.554
				c-0.719-1.795-1.551-4.075-2.631-6.637c-1.103-2.532-2.371-5.444-3.791-8.704c-2.954-6.501-6.721-14.394-11.394-23.249
				c-2.271-4.467-4.972-9.077-7.661-14.017c-2.808-4.876-5.81-9.981-8.998-15.275c-3.301-5.229-6.594-10.769-10.31-16.31
				c-1.829-2.789-3.688-5.627-5.577-8.509c-1.951-2.839-3.933-5.722-5.941-8.647c-1.004-1.461-2.014-2.933-3.032-4.414
				c-1.049-1.46-2.104-2.931-3.165-4.41c-2.123-2.959-4.275-5.952-6.447-8.979c-2.234-2.984-4.492-6.001-6.773-9.047
				c-1.142-1.521-2.286-3.051-3.44-4.585c-1.181-1.516-2.365-3.037-3.558-4.564c-9.424-12.302-19.676-24.62-30.231-37.017
				c-10.644-12.322-21.736-24.604-33.135-36.602c-11.461-11.935-23.083-23.731-34.955-34.896
				c-5.85-5.675-11.886-11.055-17.754-16.475c-2.959-2.681-5.964-5.275-8.913-7.892c-2.959-2.601-5.876-5.215-8.859-7.693
				c-2.966-2.507-5.906-4.993-8.816-7.455c-2.899-2.476-5.88-4.796-8.769-7.165c-2.917-2.336-5.746-4.715-8.644-6.939
				c-2.89-2.234-5.741-4.441-8.555-6.619c-2.797-2.202-5.613-4.299-8.405-6.337c-2.783-2.053-5.524-4.073-8.221-6.061
				c-5.439-3.908-10.769-7.579-15.857-11.147c-5.185-3.426-10.154-6.705-14.88-9.827c-4.809-2.996-9.368-5.839-13.653-8.512
				c-4.361-2.545-8.443-4.927-12.222-7.131c-3.766-2.216-7.349-4.032-10.521-5.791c-6.337-3.539-11.498-5.964-14.963-7.728
				c-3.479-1.736-5.333-2.664-5.333-2.664s1.868,0.895,5.378,2.571c3.494,1.703,8.701,4.042,15.101,7.474
				c3.203,1.706,6.822,3.465,10.631,5.617c3.817,2.141,7.946,4.455,12.356,6.93c4.338,2.602,8.954,5.371,13.819,8.289
				c4.79,3.045,9.823,6.248,15.078,9.589c5.155,3.486,10.563,7.075,16.084,10.897c2.733,1.947,5.517,3.925,8.341,5.934
				c2.836,1.996,5.694,4.051,8.536,6.209c2.86,2.135,5.759,4.299,8.691,6.49c2.944,2.182,5.822,4.518,8.786,6.81
				c2.938,2.325,5.968,4.603,8.919,7.036c2.964,2.418,5.953,4.862,8.968,7.323c3.041,2.438,6.009,5.007,9.023,7.568
				c3.003,2.573,6.063,5.125,9.079,7.766c5.979,5.336,12.132,10.633,18.101,16.227c12.109,11.003,23.98,22.646,35.697,34.437
				c11.658,11.855,23.016,24.004,33.93,36.211c10.826,12.281,21.352,24.497,31.054,36.719c1.226,1.52,2.447,3.03,3.661,4.536
				c1.188,1.526,2.369,3.047,3.545,4.56c2.349,3.029,4.675,6.029,6.979,8.996c2.244,3.015,4.464,5.995,6.654,8.941
				c1.098,1.473,2.186,2.938,3.269,4.394c1.054,1.477,2.1,2.944,3.137,4.401c2.078,2.916,4.128,5.793,6.146,8.626
				c1.956,2.878,3.887,5.71,5.781,8.496c3.853,5.535,7.278,11.083,10.71,16.316c3.319,5.305,6.452,10.425,9.385,15.323
				c2.818,4.971,5.635,9.601,8.025,14.106c4.915,8.939,8.882,16.892,12.043,23.55c1.533,3.368,2.904,6.375,4.098,8.991
				c1.15,2.614,2.001,4.826,2.757,6.626c1.475,3.598,2.262,5.516,2.262,5.516L2226.621,424.997z"/>
		</g>
		<g>
			<g>
				<path fill="#02847A" stroke="#231F20" stroke-miterlimit="10" d="M254.958,301.572c-0.031-1.498-0.024-3.004-0.045-4.506
					c4.738-25.396,20.448-116.659,2.584-121.443c-18.097-4.849-16.441,71.732-4.837,123.619c0.015,1.473,0.02,2.941,0.046,4.414
					c-2.072,1.924-3.235,3.029-3.235,3.029c1.079-0.363,2.17-0.742,3.267-1.127l0.002,0.062l0.284-0.162
					c50.187-17.67,116.542-57.297,102.751-70.097C342.365,222.919,274.786,283.312,254.958,301.572z"/>
				<path fill="#02847A" stroke="#231F20" stroke-miterlimit="10" d="M25.636,572.152c-0.223-1.713-0.555-4.271-0.957-7.502
					c2.721-30.705,9.051-120.168-9.28-123.309c-18.619-3.189-10.825,70.729,5.065,123.432c0.271,3.021,0.503,5.475,0.672,7.238
					l-0.919,3.301c0,0,3.799,0.984,10.103,2.551c49.653,23.762,121.513,42.76,121.207,23.873
					c-0.302-18.596-89.681-26.016-120.441-28.018C28.951,573.109,27.11,572.58,25.636,572.152z"/>
				<path fill="#02847A" stroke="#231F20" stroke-miterlimit="10" d="M45.938,540.292c0.166,6.492,0.31,10.416,0.31,10.416
					l4.545-0.246c0,0-0.265-3.768-0.641-10.021c4.689-30.467,16.758-119.336-1.333-123.648
					C30.444,412.41,33.467,486.679,45.938,540.292z"/>
				<path fill="#02847A" stroke="#231F20" stroke-miterlimit="10" d="M77.393,512.24c0.151,6.457,0.288,10.408,0.288,10.408
					l4.545-0.246c0,0-0.274-3.775-0.651-9.996c4.376-28.627,15.052-108.443-1.347-112.352
					C63.506,396.066,66.146,463.23,77.393,512.24z"/>
				<path fill="#02847A" stroke="#231F20" stroke-miterlimit="10" d="M104.259,488.75c0.152,6.459,0.29,10.41,0.29,10.41
					l4.543-0.246c0,0-0.272-3.777-0.651-9.994c4.378-28.627,15.054-108.445-1.346-112.355
					C90.374,372.58,93.011,439.744,104.259,488.75z"/>
				<path fill="#02847A" stroke="#231F20" stroke-miterlimit="10" d="M130.919,460.582c0.138,6.436,0.271,10.398,0.271,10.398
					l4.543-0.248c0,0-0.276-3.785-0.659-9.965c4.119-27.125,13.701-99.793-1.357-103.383
					C118.308,353.71,120.643,415.242,130.919,460.582z"/>
				<path fill="#02847A" stroke="#231F20" stroke-miterlimit="10" d="M46.375,552.812l-0.662,4.502c0,0,3.893,0.506,10.343,1.266
					c52.242,17.338,125.919,27.166,123.244,8.467c-2.635-18.41-92.237-14.551-123.006-12.676
					C50.099,553.423,46.375,552.812,46.375,552.812z"/>
				<path fill="#02847A" stroke="#231F20" stroke-miterlimit="10" d="M86.072,528.296c-6.256-0.377-10.021-0.645-10.021-0.645
					l-0.126,2.271l-0.124,2.273c0,0,3.923,0.143,10.417,0.314c53.606,12.5,127.873,15.561,123.501-2.816
					C205.417,511.603,116.537,523.625,86.072,528.296z"/>
				<path fill="#02847A" stroke="#231F20" stroke-miterlimit="10" d="M111.599,501.197c-6.266,0.088-10.042,0.1-10.042,0.1
					l0.045,2.275l0.044,2.275c0,0,3.922-0.148,10.41-0.459c54.386,8.49,128.675,6.039,122.955-11.965
					C229.378,475.701,141.636,494.279,111.599,501.197z"/>
				<path fill="#02847A" stroke="#231F20" stroke-miterlimit="10" d="M137.634,471.375c-6.221,0.766-9.97,1.184-9.97,1.184
					l0.579,4.514c0,0,3.883-0.57,10.3-1.58c54.986,2.553,128.572-7.922,120.938-25.201
					C251.963,433.283,166.747,461.246,137.634,471.375z"/>
				<path fill="#02847A" stroke="#231F20" stroke-miterlimit="10" d="M168.893,435.58c-2.429,0.564-4.467,1.029-6.049,1.389
					c-0.169-1.709-0.409-4.168-0.691-7.201c3.276-27.236,10.593-100.17-4.571-103.291c-15.516-3.191-11.268,58.238,0.413,103.236
					c0.338,6.428,0.594,10.385,0.594,10.385l1.038-0.09l0.532,2.232c0,0,3.801-0.979,10.075-2.66
					c54.948-3.271,127.016-21.461,117.597-37.834C278.558,385.623,196.774,422.431,168.893,435.58z"/>
				<path fill="#02847A" stroke="#231F20" stroke-miterlimit="10" d="M200.966,390.771c-2.464,0.801-4.508,1.455-6.076,1.957
					c-0.379-1.463-0.842-3.262-1.372-5.344c-0.966-26.623-4.903-96.258-19.686-96.959c-15.154-0.721-2.113,56.6,15.583,97.541
					c1.318,6.277,2.182,10.156,2.182,10.156l1.147-0.281l0.103,0.309c0,0,1.07-0.377,3.006-1.07l0.166-0.043l-0.005-0.014
					c1.652-0.596,3.903-1.406,6.635-2.402c52.043-7.727,118.821-30.93,108.52-45.719
					C301.046,334.371,226.794,375.751,200.966,390.771z"/>
				<path fill="#02847A" stroke="#231F20" stroke-miterlimit="10" d="M231,345.25c-1.776,0.799-3.323,1.488-4.626,2.068
					c-0.228-1.578-0.513-3.578-0.844-5.955c2.212-29.795,6.96-114.668-10.535-117.418c-17.806-2.799-9.473,67.406,6.336,117.588
					c0.338,3.268,0.619,5.873,0.811,7.656c-0.195,0.088-0.306,0.135-0.306,0.135l0.424,0.93c0.118,1.057,0.184,1.637,0.184,1.637
					l0.533-0.07l0.751,1.643c0,0,3.55-1.703,9.361-4.568c50.903-13.312,114.78-43.607,102.937-57.195
					C324.389,278.349,255.054,327.523,231,345.25z"/>
				<path fill="#02847A" stroke="#231F20" stroke-miterlimit="10" d="M359.77,169.353c-14.923-8.762-65.782,62.471-78.832,81.254
					c-0.652,0.615-1.299,1.234-1.952,1.848l-0.001-1.218c6.808-25.517,26.452-104.38,10.742-109.952
					c-16.817-5.965-20.656,69.096-12.907,117.869c0,0,0.209-0.736,0.579-2.074l1.232-1.168c1.277-1.21,2.535-2.439,3.807-3.654
					C324.015,226.019,374.608,178.064,359.77,169.353z"/>
			</g>
			<path fill="#FFB200" stroke="#231F20" stroke-miterlimit="10" d="M0.689,580.031c0,0,1.778-1.064,5.114-3.062
				c1.65-1.01,3.759-2.209,6.104-3.703c2.313-1.51,4.972-3.246,7.949-5.189c5.917-3.998,13.07-9.029,21.021-15.115
				c4.025-2.984,8.12-6.416,12.542-9.893c4.339-3.582,8.872-7.395,13.559-11.422c4.605-4.127,9.517-8.299,14.36-12.887
				c2.445-2.27,4.933-4.576,7.458-6.92c2.473-2.396,4.985-4.832,7.535-7.301c1.272-1.234,2.555-2.475,3.846-3.727
				c1.265-1.277,2.539-2.564,3.82-3.857c2.563-2.586,5.155-5.209,7.776-7.855c2.569-2.701,5.167-5.43,7.789-8.188
				c1.309-1.381,2.626-2.764,3.946-4.158c1.297-1.418,2.6-2.84,3.907-4.27c10.556-11.346,20.991-23.51,31.451-35.986
				c10.373-12.551,20.63-25.537,30.557-38.779c9.854-13.291,19.546-26.721,28.573-40.289c4.619-6.715,8.916-13.564,13.28-20.254
				c2.149-3.365,4.206-6.762,6.293-10.105c2.07-3.352,4.161-6.664,6.106-10.02c1.977-3.344,3.936-6.656,5.879-9.938
				c1.957-3.271,3.747-6.598,5.6-9.842c1.817-3.266,3.691-6.453,5.399-9.68c1.721-3.223,3.421-6.402,5.099-9.541
				c1.705-3.125,3.301-6.251,4.845-9.344c1.559-3.088,3.094-6.127,4.603-9.117c2.946-6.016,5.676-11.883,8.345-17.496
				c2.511-5.684,4.916-11.131,7.205-16.312c2.151-5.241,4.193-10.211,6.113-14.882c1.781-4.726,3.449-9.148,4.991-13.241
				c1.557-4.083,2.75-7.919,3.954-11.341c2.432-6.838,3.961-12.332,5.121-16.043c1.132-3.719,1.737-5.702,1.737-5.702
				s-0.571,1.991-1.638,5.731c-1.096,3.729-2.533,9.254-4.849,16.137c-1.147,3.442-2.277,7.305-3.764,11.419
				c-1.473,4.121-3.066,8.579-4.77,13.34c-1.841,4.712-3.8,9.726-5.866,15.009c-2.202,5.23-4.521,10.729-6.938,16.467
				c-2.577,5.666-5.212,11.597-8.06,17.678c-1.464,3.02-2.949,6.094-4.458,9.215c-1.496,3.129-3.043,6.29-4.698,9.452
				c-1.628,3.177-3.278,6.396-4.948,9.653c-1.66,3.268-3.482,6.494-5.248,9.799c-1.802,3.285-3.541,6.652-5.449,9.969
				c-1.891,3.326-3.8,6.682-5.724,10.064c-1.896,3.404-3.934,6.76-5.956,10.16c-2.036,3.391-4.041,6.834-6.141,10.248
				c-4.263,6.785-8.459,13.736-12.978,20.555c-8.828,13.775-18.325,27.424-27.995,40.945c-9.743,13.473-19.826,26.699-30.04,39.498
				c-10.302,12.723-20.589,25.141-31.021,36.746c-1.293,1.463-2.579,2.918-3.861,4.367c-1.307,1.426-2.608,2.844-3.904,4.256
				c-2.595,2.822-5.165,5.615-7.705,8.383c-2.598,2.715-5.166,5.402-7.705,8.053c-1.269,1.328-2.532,2.645-3.787,3.957
				c-1.28,1.285-2.552,2.561-3.816,3.826c-2.528,2.537-5.022,5.037-7.479,7.5c-2.511,2.41-4.981,4.785-7.412,7.119
				c-4.814,4.723-9.713,9.025-14.3,13.283c-4.676,4.158-9.201,8.102-13.542,11.811c-4.431,3.609-8.525,7.158-12.569,10.268
				c-7.994,6.338-15.172,11.576-21.209,15.805c-3.065,2.074-5.801,3.928-8.181,5.541c-2.386,1.57-4.424,2.779-6.073,3.824
				c-3.301,2.055-5.061,3.15-5.061,3.15L0.689,580.031z"/>
		</g>
		<g>
			<g>
				<path fill="#00A59F" stroke="#231F20" stroke-miterlimit="10" d="M522.443,285.869c-31.858,25.035-78.138,22.266-106.75-7.613
					c-28.613-29.881-29.375-76.236-2.982-106.98L522.443,285.869z"/>
				<path fill="#99E9C3" stroke="#231F20" stroke-miterlimit="10" d="M514.171,277.23c-27.069,20.521-65.817,17.934-89.886-7.203
					c-24.069-25.135-24.976-63.959-3.301-90.113L514.171,277.23z"/>
				<path fill="#FF4A5B" stroke="#231F20" stroke-miterlimit="10" d="M510.488,273.382c-24.932,18.512-60.345,16.006-82.384-7.01
					c-22.04-23.018-23.01-58.506-3.435-82.611L510.488,273.382z"/>
			</g>
			<g>
				<g>
					<path fill="#00A59F" stroke="#231F20" stroke-miterlimit="10" d="M432.369,202.037c-0.613,0.586-1.583,0.564-2.168-0.047
						c-0.586-0.611-0.565-1.582,0.046-2.168s2.959-0.709,2.959-0.709S432.98,201.451,432.369,202.037z"/>
					<path fill="#00A59F" stroke="#231F20" stroke-miterlimit="10" d="M441.271,211.333c-0.612,0.586-1.583,0.564-2.168-0.047
						c-0.586-0.611-0.565-1.582,0.046-2.168c0.612-0.586,2.959-0.711,2.959-0.711S441.883,210.748,441.271,211.333z"/>
					<path fill="#00A59F" stroke="#231F20" stroke-miterlimit="10" d="M450.172,220.63c-0.611,0.586-1.581,0.564-2.168-0.047
						c-0.586-0.613-0.564-1.584,0.047-2.168c0.612-0.586,2.96-0.711,2.96-0.711S450.785,220.044,450.172,220.63z"/>
					<path fill="#00A59F" stroke="#231F20" stroke-miterlimit="10" d="M459.076,229.927c-0.612,0.584-1.583,0.564-2.17-0.047
						c-0.584-0.613-0.564-1.584,0.049-2.17c0.61-0.586,2.958-0.709,2.958-0.709S459.686,229.341,459.076,229.927z"/>
					<path fill="#00A59F" stroke="#231F20" stroke-miterlimit="10" d="M467.977,239.222c-0.611,0.588-1.582,0.564-2.168-0.047
						s-0.564-1.582,0.047-2.168c0.612-0.586,2.958-0.709,2.958-0.709S468.589,238.636,467.977,239.222z"/>
					<path fill="#00A59F" stroke="#231F20" stroke-miterlimit="10" d="M476.88,248.519c-0.613,0.586-1.584,0.564-2.17-0.047
						s-0.564-1.582,0.047-2.168c0.612-0.586,2.96-0.711,2.96-0.711S477.491,247.933,476.88,248.519z"/>
					<path fill="#00A59F" stroke="#231F20" stroke-miterlimit="10" d="M485.782,257.816c-0.612,0.586-1.583,0.564-2.168-0.047
						c-0.586-0.611-0.565-1.582,0.047-2.168s2.958-0.711,2.958-0.711S486.394,257.23,485.782,257.816z"/>
					<path fill="#00A59F" stroke="#231F20" stroke-miterlimit="10" d="M494.683,267.113c-0.611,0.586-1.582,0.564-2.168-0.047
						s-0.564-1.582,0.047-2.168c0.612-0.586,2.96-0.711,2.96-0.711S495.295,266.527,494.683,267.113z"/>
				</g>
				<g>
					<path fill="#00A59F" stroke="#231F20" stroke-miterlimit="10" d="M428.368,214.779c-0.611,0.584-1.582,0.564-2.168-0.047
						c-0.585-0.613-0.564-1.584,0.047-2.17c0.612-0.584,2.959-0.709,2.959-0.709S428.979,214.193,428.368,214.779z"/>
					<path fill="#00A59F" stroke="#231F20" stroke-miterlimit="10" d="M437.27,224.074c-0.611,0.586-1.582,0.566-2.168-0.045
						c-0.586-0.613-0.564-1.584,0.047-2.17s2.958-0.709,2.958-0.709S437.881,223.49,437.27,224.074z"/>
					<path fill="#00A59F" stroke="#231F20" stroke-miterlimit="10" d="M446.172,233.371c-0.611,0.586-1.582,0.564-2.168-0.047
						s-0.564-1.582,0.047-2.168c0.612-0.586,2.958-0.709,2.958-0.709S446.785,232.785,446.172,233.371z"/>
					<path fill="#00A59F" stroke="#231F20" stroke-miterlimit="10" d="M455.075,242.667c-0.612,0.586-1.583,0.564-2.169-0.047
						s-0.564-1.582,0.048-2.168c0.611-0.586,2.959-0.711,2.959-0.711S455.686,242.082,455.075,242.667z"/>
					<path fill="#00A59F" stroke="#231F20" stroke-miterlimit="10" d="M463.976,251.964c-0.61,0.586-1.583,0.564-2.167-0.047
						c-0.586-0.611-0.566-1.582,0.046-2.168c0.613-0.586,2.959-0.711,2.959-0.711S464.589,251.378,463.976,251.964z"/>
					<path fill="#00A59F" stroke="#231F20" stroke-miterlimit="10" d="M472.878,261.261c-0.611,0.586-1.582,0.564-2.168-0.047
						s-0.564-1.582,0.047-2.168c0.612-0.586,2.96-0.711,2.96-0.711S473.491,260.675,472.878,261.261z"/>
					<path fill="#00A59F" stroke="#231F20" stroke-miterlimit="10" d="M481.781,270.558c-0.612,0.586-1.583,0.564-2.167-0.049
						c-0.586-0.611-0.566-1.582,0.046-2.166c0.611-0.588,2.959-0.711,2.959-0.711S482.392,269.972,481.781,270.558z"/>
				</g>
				<g>
					<path fill="#00A59F" stroke="#231F20" stroke-miterlimit="10" d="M424.207,227.673c-0.612,0.586-1.583,0.564-2.168-0.047
						c-0.586-0.611-0.565-1.582,0.046-2.168c0.612-0.586,2.959-0.711,2.959-0.711S424.819,227.087,424.207,227.673z"/>
					<path fill="#00A59F" stroke="#231F20" stroke-miterlimit="10" d="M433.109,236.97c-0.612,0.586-1.583,0.564-2.168-0.047
						c-0.586-0.611-0.565-1.582,0.046-2.168s2.959-0.711,2.959-0.711S433.721,236.384,433.109,236.97z"/>
					<path fill="#00A59F" stroke="#231F20" stroke-miterlimit="10" d="M442.01,246.267c-0.61,0.586-1.582,0.564-2.168-0.047
						c-0.585-0.611-0.564-1.582,0.048-2.168c0.611-0.586,2.959-0.711,2.959-0.711S442.623,245.681,442.01,246.267z"/>
					<path fill="#00A59F" stroke="#231F20" stroke-miterlimit="10" d="M450.914,255.564c-0.612,0.586-1.583,0.564-2.169-0.049
						c-0.585-0.611-0.564-1.582,0.048-2.166c0.61-0.588,2.958-0.711,2.958-0.711S451.524,254.976,450.914,255.564z"/>
					<path fill="#00A59F" stroke="#231F20" stroke-miterlimit="10" d="M459.815,264.861c-0.611,0.584-1.581,0.564-2.168-0.049
						c-0.586-0.611-0.564-1.582,0.047-2.168c0.612-0.586,2.958-0.709,2.958-0.709S460.427,264.273,459.815,264.861z"/>
					<path fill="#00A59F" stroke="#231F20" stroke-miterlimit="10" d="M468.718,274.156c-0.612,0.586-1.583,0.566-2.17-0.047
						c-0.586-0.611-0.563-1.582,0.049-2.168c0.61-0.586,2.958-0.709,2.958-0.709S469.329,273.57,468.718,274.156z"/>
				</g>
				<g>
					<path fill="#00A59F" stroke="#231F20" stroke-miterlimit="10" d="M429.108,249.712c-0.612,0.584-1.583,0.562-2.168-0.049
						c-0.585-0.611-0.564-1.582,0.047-2.168c0.611-0.586,2.958-0.709,2.958-0.709S429.72,249.125,429.108,249.712z"/>
					<path fill="#00A59F" stroke="#231F20" stroke-miterlimit="10" d="M438.01,259.007c-0.611,0.586-1.582,0.564-2.168-0.047
						s-0.564-1.582,0.047-2.168c0.612-0.586,2.959-0.711,2.959-0.711S438.623,258.421,438.01,259.007z"/>
					<path fill="#00A59F" stroke="#231F20" stroke-miterlimit="10" d="M446.914,268.304c-0.613,0.586-1.584,0.564-2.17-0.047
						c-0.584-0.611-0.564-1.582,0.049-2.168c0.61-0.586,2.958-0.711,2.958-0.711S447.524,267.718,446.914,268.304z"/>
				</g>
			</g>
		</g>
		<g>
			<path fill="#00A59F" stroke="#231F20" stroke-miterlimit="10" d="M1854.464,261.388c-1.737-6.667-6.004-12.668-12.402-16.434
				c-12.799-7.531-29.285-3.269-36.816,9.53l-33.446,56.839l46.362,27.283l33.447-56.84
				C1855.375,275.367,1856.19,268.048,1854.464,261.388z"/>
			<path fill="#FFEF00" stroke="#231F20" stroke-miterlimit="10" d="M1789.338,321.646l-15.257,25.93
				c-1.833,3.115-0.794,7.127,2.321,8.961c3.117,1.832,7.129,0.793,8.962-2.322l15.257-25.928L1789.338,321.646z"/>
			<path fill="#FF97BA" stroke="#231F20" d="M1851.609,281.767l-10.617,18.041c-0.963,1.638-3.071,2.184-4.709,1.221l0,0
				c-1.636-0.963-3.745-0.418-4.708,1.219l-6.799,11.555c-0.719,1.221-2.292,1.629-3.513,0.91l0,0
				c-1.222-0.719-1.629-2.291-0.911-3.514l7.129-12.113c0.782-1.327,0.338-3.037-0.989-3.818l0,0
				c-1.329-0.782-3.039-0.34-3.82,0.988l-2.789,4.739c-1.303,2.214-4.155,2.953-6.368,1.649l0,0
				c-2.216-1.303-2.954-4.154-1.651-6.369l4.505-7.656c1.189-2.021,0.516-4.623-1.507-5.812l0,0
				c-2.021-1.19-4.623-0.516-5.812,1.505l-10.709,18.199c-1.219,2.07-3.884,2.762-5.955,1.543l0,0
				c-2.069-1.219-2.76-3.883-1.542-5.953l7.974-13.553c0.736-1.249,0.318-2.859-0.931-3.596l0,0
				c-1.251-0.735-2.861-0.318-3.597,0.932l-2.388,4.058c-0.623,1.06-1.987,1.413-3.048,0.789l0,0
				c-1.059-0.624-1.413-1.987-0.79-3.048l16.886-28.695c7.227-12.279,22.776-17.309,35.507-10.908
				c7.293,3.666,12.132,10.099,14.009,17.309C1856.19,268.048,1855.375,275.367,1851.609,281.767z"/>
		</g>
		<g>
			<path fill="#00A59F" stroke="#231F20" stroke-miterlimit="10" d="M1061.281,728.082c0,88.094,8.211,121.09,18.344,121.09
				s18.346-32.996,18.346-121.09c0-88.095-18.346-197.928-18.346-197.928S1061.281,639.987,1061.281,728.082"/>
			<path fill="#00A59F" stroke="#231F20" stroke-miterlimit="10" d="M1036.702,733.077c10.926,87.452,23.173,119.237,33.229,118.05
				c10.055-1.193,14.119-34.912,3.19-122.359c-10.929-87.453-42.761-194.33-42.761-194.33S1025.773,645.624,1036.702,733.077"/>
			<path fill="#00A59F" stroke="#231F20" stroke-miterlimit="10" d="M1005.881,739.897c25.625,84.489,43.099,113.874,52.816,111.079
				c9.716-2.791,7.993-36.699-17.628-121.19c-25.625-84.488-75.162-184.776-75.162-184.776S980.259,655.407,1005.881,739.897"/>
			<path fill="#00A59F" stroke="#231F20" stroke-miterlimit="10" d="M979.587,754.084c40.678,76.103,63.007,101.012,71.758,96.581
				c8.753-4.434,0.614-36.531-40.063-112.633c-40.676-76.098-107.237-162.957-107.237-162.957S938.913,677.982,979.587,754.084"/>
			<path fill="#00A59F" stroke="#231F20" stroke-miterlimit="10" d="M960.037,777.039c49.787,61.7,74.186,80.409,81.283,74.983
				c7.094-5.425-5.801-32.932-55.587-94.63c-49.785-61.695-124.704-128.793-124.704-128.793S910.25,715.341,960.037,777.039"/>
			<path fill="#00A59F" stroke="#231F20" stroke-miterlimit="10" d="M935.779,804.116c67.031,43.566,96.199,53.96,101.208,46.657
				c5.013-7.306-16.034-29.542-83.067-73.105c-67.03-43.566-159.675-84.652-159.675-84.652S868.747,760.552,935.779,804.116"/>
			<path fill="#00A59F" stroke="#231F20" stroke-miterlimit="10" d="M935.912,833.351c62.981,21.349,88.56,23.781,91.016,16.918
				c2.453-6.859-19.143-20.418-82.123-41.767c-62.982-21.349-145.947-35.541-145.947-35.541S872.933,812.004,935.912,833.351"/>
			<path fill="#00A59F" stroke="#231F20" stroke-miterlimit="10" d="M1097.968,728.082c0,88.094-8.213,121.09-18.344,121.09
				c-10.133,0-18.346-32.996-18.346-121.09c0-88.095,18.346-197.928,18.346-197.928S1097.968,639.987,1097.968,728.082"/>
			<path fill="#00A59F" stroke="#231F20" stroke-miterlimit="10" d="M1122.548,733.077c-10.927,87.452-23.174,119.237-33.231,118.05
				c-10.058-1.193-14.118-34.912-3.189-122.359c10.929-87.453,42.761-194.33,42.761-194.33S1133.476,645.624,1122.548,733.077"/>
			<path fill="#00A59F" stroke="#231F20" stroke-miterlimit="10" d="M1153.367,739.897
				c-25.624,84.489-43.098,113.874-52.815,111.079c-9.717-2.791-7.995-36.699,17.628-121.19
				c25.621-84.488,75.163-184.776,75.163-184.776S1178.989,655.407,1153.367,739.897"/>
			<path fill="#00A59F" stroke="#231F20" stroke-miterlimit="10" d="M1179.661,754.084c-40.679,76.103-63.006,101.012-71.758,96.581
				c-8.752-4.434-0.613-36.531,40.064-112.633c40.675-76.098,107.235-162.957,107.235-162.957S1220.336,677.982,1179.661,754.084"/>
			<path fill="#00A59F" stroke="#231F20" stroke-miterlimit="10" d="M1199.211,777.039c-49.786,61.7-74.185,80.409-81.281,74.983
				c-7.095-5.425,5.799-32.932,55.586-94.63c49.787-61.695,124.704-128.793,124.704-128.793S1248.999,715.341,1199.211,777.039"/>
			<path fill="#00A59F" stroke="#231F20" stroke-miterlimit="10" d="M1223.47,804.116c-67.033,43.566-96.2,53.96-101.211,46.657
				c-5.009-7.306,16.035-29.542,83.068-73.105c67.031-43.566,159.675-84.652,159.675-84.652S1290.5,760.552,1223.47,804.116"/>
			<path fill="#00A59F" stroke="#231F20" stroke-miterlimit="10" d="M1223.334,833.351c-62.978,21.349-88.559,23.781-91.015,16.918
				c-2.453-6.859,19.145-20.418,82.125-41.767c62.981-21.349,145.948-35.541,145.948-35.541S1286.316,812.004,1223.334,833.351"/>
		</g>
		<circle fill="#00A59F" stroke="#231F20" stroke-miterlimit="10" cx="1247.286" cy="456.516" r="7.917"/>
		<path fill="#00D0B1" stroke="#231F20" d="M1643.641,774.04c0,0-42.549-15.353-37.397-66.867
			c13.737,5.839,25.757,16.926,25.757,16.926s-15.089-69.176,36.611-110.388c0,0,63.782,20.504,89.018,80.164
			c0,0-4.938-24.97,43.633-48.52c0,0,18.398,40.476,5.152,80.215c0,0,13.246-20.605,48.57-15.454c0,0,10.725,31.235-30.697,64.557
			L1643.641,774.04z"/>
		<path fill="#17153F" stroke="#231F20" d="M1681.229,630.612"/>
		<path fill="#00A4A5" stroke="#231F20" d="M1803.261,767.577h-133.196c-37.294,0-67.526,30.232-67.526,67.525v0.001h268.249v-0.001
			C1870.788,797.809,1840.555,767.577,1803.261,767.577z"/>
		<path fill="#FF4A5B" stroke="#231F20" stroke-miterlimit="10" d="M1287.452,987.254c1.464-0.859,3.008-1.767,4.627-2.718
			c1.549-1.012,3.169-2.07,4.858-3.175c3.381-2.209,7.037-4.599,10.945-7.151c5.457-3.415,11.245-7.509,17.422-11.906
			c-12.832-17.677-15.797-39.13-11.327-62.357c9.776,15.991,21.249,27.858,21.249,27.858s-13.51-20.015-16.586-45.566
			c11.497-34.305,36.986-71.198,69.363-104.819c2.9,23.254,13.215,45.149,13.215,45.149s-6.512-35.053,7.822-65.659
			c1.607-1.474,3.237-2.927,4.867-4.379c6.41,28.672,27.696,51.456,27.696,51.456s-10.573-37.878-6.347-69.416
			c38.549-30.59,81.074-54.803,119.699-66.077c-0.126,0.691-0.179,1.119-0.179,1.119c-3.345,27.121,7.903,59.2,7.903,59.2
			s-5.854-35.906,11.445-64.869c25.24-4.576,48.053-2.668,65.925,7.845c0.034-0.035,0.056-0.061,0.056-0.061
			s-0.021,0.025-0.053,0.062c0.209,0.122,0.425,0.23,0.632,0.356c18.222,35.35,7.688,83.178-18.741,130.908
			c-23.814,20.7-54.219,22.326-54.219,22.326s16.36,8.932,35.84,7.239c-15.125,21.953-33.105,43.317-52.695,62.827
			c-25.262,5.758-48.867-0.38-48.867-0.38s17.191,7.876,37.262,11.539c-11.928,11.088-24.316,21.446-36.91,30.798
			c-26.129-0.271-46.28-13.562-46.28-13.562s8.415,18.22,26.438,27.328c-56.76,36.731-114.705,50.881-150.153,19.131
			c-6.452,4.839-12.482,9.352-18.288,13.193c-3.953,2.722-7.653,5.269-11.074,7.624c-1.712,1.178-3.354,2.308-4.924,3.387
			c-1.595,0.991-3.115,1.935-4.559,2.832c-11.551,7.166-18.151,11.262-18.151,11.262l-6.335-10.534
			C1269.029,998.065,1275.728,994.133,1287.452,987.254z"/>
		<g>
			<path fill="#FF5572" stroke="#231F20" stroke-miterlimit="10" d="M213.255,767.376c0,0-12.441-13.91-60.642-30.603
				c-48.203-16.689-111.954-63.982-82.412-137.705c29.545-73.721,74.637-114.056,95.628-105.018
				c20.992,9.039-9.792,64.959,25.425,125.676c35.217,60.718,61.649,28.723,39.103-6.748
				c-22.545-35.469-24.878-66.766-17.102-104.32c7.773-37.556,52.866-75.117,76.189-68.163
				c23.325,6.955,10.108,13.219,11.663,59.118c1.555,45.904,10.106,63.291,25.656,63.291c15.549,0,6.995-70.248,9.327-95.977
				c2.333-25.735,20.215-34.774,48.981-31.298c28.766,3.479,52.088,14.606,40.427,36.163
				c-11.661,21.562-34.987,59.118-11.661,73.025c23.322,13.912,16.7-42.756,32.452-74.929
				c15.751-32.176,38.298-45.388,70.172-39.131c31.873,6.258,60.642,11.13,60.642,11.13L213.255,767.376z"/>
			<path fill="#FF4A5B" stroke="#231F20" stroke-miterlimit="10" d="M213.255,767.376c0,0,15.549,11.129,34.207,54.253
				c18.66,43.117,71.524,100.151,153.938,73.718c82.408-26.426,127.501-66.764,117.396-85.543
				c-10.109-18.781-72.621,8.758-140.489-22.743c-67.87-31.505-32.108-55.15,7.547-34.983
				c39.646,20.169,74.632,22.253,116.613,15.299c41.982-6.955,83.965-47.292,76.188-68.16c-7.772-20.863-14.771-9.036-66.082-10.429
				c-51.31-1.39-70.748-9.042-70.748-22.952c0-13.907,78.522-6.255,107.286-8.346c28.768-2.085,38.877-18.079,34.988-43.816
				c-3.888-25.729-16.327-46.592-40.428-36.163c-24.1,10.435-66.084,31.298-81.63,10.435c-15.55-20.863,47.798-14.941,83.761-29.032
				c35.965-14.094,50.735-34.261,43.74-62.777c-6.999-28.511-12.439-54.246-12.439-54.246L213.255,767.376z"/>
			
				<line fill="none" stroke="#231F20" stroke-width="3.1851" stroke-linecap="round" stroke-linejoin="round" stroke-miterlimit="10" x1="577.103" y1="441.889" x2="101.608" y2="867.251"/>
		</g>
		<g>
			<path fill="none" stroke="#00A59F" stroke-width="3" stroke-linecap="round" stroke-linejoin="round" stroke-miterlimit="10" d="
				M1378.011,512.648c27.559,0,27.559,20,55.118,20s27.56-20,55.12-20c27.56,0,27.56,20,55.118,20c27.563,0,27.563-20,55.127-20
				c27.562,0,27.562,20,55.126,20"/>
		</g>
	</g>
</g>
<g>
	<g>
		<path fill="#00A59F" stroke="#231F20" stroke-miterlimit="10" d="M1754.814,407.829c0,0-2.036,65.557,59.828,140.246
			l64.149,13.612l-48.746,20.317l33.625,75.777l91.705-28.881l-86.061,50.646l44.895,76.301l49.823-13.783l-38.856,32.414
			c0,0,19.475,35.124,73.915,48.485l31.678-49.697l-27.499,56.789c0,0,72.458,54.117,137.643,8.59
			c-30.07-55.165-76.172-115.231-76.172-115.231l-40.253-62.319c0,0-29.529-14.878-51.909-61.432
			c-51.509-67.636-94.264-105.778-94.264-105.778l-38.686-39.355l-15.606-12.317L1754.814,407.829z"/>
		<path fill="#99E9C3" stroke="#231F20" stroke-miterlimit="10" d="M1754.814,407.829c0,0,83.918-13.69,150.113,29.786
			l-5.997,40.553l36.377-21.405c0,0,24.063,14.507,41.919,32.668c0,0-19.516,52.094-3.12,75.895l26.561-50.27
			c0,0,41.761,30.372,64.887,71.703c0,0-49.893,32.946-51.243,67.191l63.808-45.912c0,0,29.059,33.066,43.333,73.645l-37.297,21.941
			l45.166-15.82l6.147,23.858l-11.534,6.78l16.752,2.084l2.878,15.036l-10.653,6.263l14.984,3.136c0,0,23.651,42.222-6.981,93.686
			C2140.913,838.646,1922.285,507.707,1754.814,407.829"/>
		<path fill="#02847A" stroke="#231F20" stroke-miterlimit="10" d="M2235.1,977.2c0.009-0.011,0.025-0.015,0.038-0.026
			c2.138-1.286,2.81-4.089,1.497-6.269c-234.063-388.806-476.396-564.896-478.802-566.62c-1.982-1.411-4.74-0.948-6.155,1.042
			c-1.41,1.996-0.953,4.764,1.028,6.188c2.387,1.71,243.274,176.926,476.198,564.041
			C2230.206,977.722,2232.969,978.452,2235.1,977.2"/>
	</g>
</g>
<g>
	<g>
		<path fill="#00A59F" stroke="#231F20" stroke-miterlimit="10" d="M620.159,344.952c0,0-5.31,69.146-78.831,140.632l-68.983,7.02
			L521.28,519.5l-43.959,75.839l-93.123-40.781l84.714,63.021l-55.866,75.106l-50.808-20.149l37.163,38.489
			c0,0-24.463,34.71-83.212,42.569l-27.652-55.843l22.455,62.823c0,0-82.32,48.655-145.672-6.611
			c37.88-54.574,93.17-112.479,93.17-112.479l49.397-60.938c0,0,32.732-12.283,61.549-58.68
			C431.271,456.62,480.55,421.382,480.55,421.382l45.14-36.976l17.806-11.175L620.159,344.952z"/>
		<path fill="#99E9C3" stroke="#231F20" stroke-miterlimit="10" d="M620.159,344.952c0,0-86.663-23.929-161.189,14.253l1.695,43.312
			l-35.808-26.637c0,0-26.945,12.517-47.778,29.578c0,0,14.595,56.981-5.345,80.137l-22.209-55.862c0,0-47.352,27.182-76.358,68.003
			c0,0,48.703,40.304,46.232,76.456l-61.859-55.515c0,0-34.306,31.459-53.922,72.493l36.714,27.304l-45.682-21.764l-9.174,24.382
			l11.355,8.439l-17.848,0.287l-4.733,15.479l10.486,7.794l-16.108,1.594c0,0-29.66,41.697-3.308,99.279
			C165.32,753.963,432.757,430.915,620.159,344.952"/>
		<path fill="#02847A" stroke="#231F20" stroke-miterlimit="10" d="M50.563,888.911c-0.008-0.011-0.026-0.018-0.038-0.032
			c-2.102-1.594-2.489-4.618-0.861-6.759c290.238-382.126,564.997-539.697,567.722-541.236c2.244-1.26,5.092-0.459,6.352,1.795
			c1.257,2.258,0.462,5.115-1.783,6.388c-2.703,1.525-275.844,158.344-564.692,538.821C55.648,890.016,52.66,890.469,50.563,888.911
			"/>
	</g>
</g>
<g>
	<g>
		<g>
			<path fill="#FFD600" stroke="#231F20" stroke-miterlimit="10" d="M562.593,600.447c0,0-16.738,43.755-78.098,75.903
				l-46.021-8.724l26.514,26.834l-43.052,40.649l-52.459-44.319l42.741,57.109l-50.63,37.883l-29.021-22.818l16.659,32.077
				c0,0-22.518,17.771-62.072,11.553l-7.164-41.477l2.456,45.002c0,0-62.667,15.672-93.061-32.296
				c35.029-28.057,81.969-54.922,81.969-54.922l43.71-29.958c0,0,23.556-1.659,51.143-26.161
				c52.592-30.353,91.284-43.695,91.284-43.695l36.339-15.261l13.682-3.812L562.593,600.447z"/>
			<path fill="#FFEF00" stroke="#231F20" stroke-miterlimit="10" d="M562.593,600.447c0,0-51.518-32.165-107.119-21.777
				l-7.236,28.378l-18.062-24.139c0,0-19.859,2.918-36.628,9.965c0,0-1.51,39.704-18.877,50.864l-3.637-40.448
				c0,0-35.891,8.498-62.53,29.354c0,0,23.789,35.465,15.235,58.396l-29.379-47.844c0,0-28.266,13.771-48.863,36.565l18.521,24.746
				l-25.393-22.879l-10.628,14.02l5.729,7.657l-11.614-3.252l-6.042,9.115l5.289,7.064l-10.735-2.07c0,0-27.228,21.298-21.24,63.66
				C189.385,777.824,424.706,620.067,562.593,600.447"/>
			<path fill="#FFB200" stroke="#231F20" stroke-miterlimit="10" d="M89.119,843.129l-0.018-0.023
				c-1.052-1.439-0.723-3.474,0.743-4.544C351.287,646.943,559.523,597.75,561.583,597.279c1.691-0.386,3.385,0.683,3.764,2.378
				c0.38,1.713-0.682,3.406-2.379,3.8c-2.045,0.464-209.085,49.479-469.313,240.303C92.198,844.823,90.176,844.544,89.119,843.129"
				/>
		</g>
		<path fill="#00A59F" stroke="#231F20" stroke-width="1.4601" stroke-miterlimit="10" d="M374.113,955.516
			c-1.464-0.859-3.008-1.767-4.627-2.718c-1.549-1.012-3.169-2.07-4.858-3.175c-3.381-2.209-7.037-4.599-10.945-7.151
			c-5.457-3.415-11.246-7.509-17.422-11.906c12.831-17.677,15.797-39.13,11.327-62.357c-9.777,15.991-21.249,27.858-21.249,27.858
			s13.509-20.015,16.585-45.566c-11.497-34.305-36.985-71.198-69.363-104.819c-2.899,23.254-13.214,45.149-13.214,45.149
			s6.511-35.053-7.822-65.659c-1.608-1.474-3.238-2.927-4.868-4.379c-6.41,28.672-27.696,51.456-27.696,51.456
			s10.574-37.878,6.347-69.416c-38.55-30.59-81.074-54.803-119.699-66.077c0.125,0.691,0.178,1.119,0.178,1.119
			c3.345,27.121-7.904,59.2-7.904,59.2s5.854-35.906-11.445-64.869c-25.241-4.576-48.053-2.668-65.925,7.845
			c-0.034-0.035-0.055-0.061-0.055-0.061s0.021,0.025,0.053,0.062c-0.209,0.122-0.425,0.23-0.632,0.356
			c-18.222,35.35-7.688,83.178,18.741,130.908c23.815,20.7,54.218,22.326,54.218,22.326s-16.36,8.932-35.839,7.239
			c15.125,21.953,33.105,43.317,52.695,62.827c25.261,5.758,48.866-0.38,48.866-0.38s-17.191,7.876-37.261,11.539
			c11.928,11.088,24.316,21.446,36.91,30.798c26.128-0.271,46.28-13.562,46.28-13.562s-8.415,18.22-26.438,27.328
			c56.759,36.731,114.705,50.881,150.153,19.131c6.452,4.839,12.482,9.352,18.289,13.193c3.953,2.722,7.653,5.269,11.074,7.624
			c1.712,1.178,3.354,2.308,4.924,3.387c1.595,0.991,3.115,1.935,4.559,2.832c11.55,7.166,18.151,11.262,18.151,11.262l6.335-10.534
			C392.536,966.327,385.836,962.395,374.113,955.516z"/>
	</g>
</g>
</svg>
