<?xml version="1.0" encoding="utf-8"?>
<!-- Generator: Adobe Illustrator 15.1.0, SVG Export Plug-In . SVG Version: 6.00 Build 0)  -->
<!DOCTYPE svg PUBLIC "-//W3C//DTD SVG 1.1//EN" "http://www.w3.org/Graphics/SVG/1.1/DTD/svg11.dtd">
<svg version="1.1" xmlns="http://www.w3.org/2000/svg" xmlns:xlink="http://www.w3.org/1999/xlink" x="0px" y="0px"
	 width="2445.549px" height="750.292px" viewBox="0 0 2445.549 750.292" enable-background="new 0 0 2445.549 750.292"
	 xml:space="preserve">
<g>
	<g>
		<path fill="#00A59F" stroke="#231F20" stroke-miterlimit="10" d="M482.796,583.048c0,0-50.624-3.986-102.867-57.923l-5.043-50.522
			l-19.765,35.795l-55.472-32.295l29.992-68.132l-46.266,61.942l-54.918-41.012l14.825-37.176l-28.236,27.158
			c0,0-25.382-17.962-31.055-60.992l40.93-20.171l-46.034,16.354c0,0-35.513-60.347,5.045-106.658
			c39.91,27.814,82.232,68.381,82.232,68.381l44.554,36.257c0,0,8.948,23.985,42.882,45.153
			c47.691,45.369,73.425,81.503,73.425,81.503l27.013,33.105l8.157,13.054L482.796,583.048z"/>
		<path fill="#99E9C3" stroke="#231F20" stroke-miterlimit="10" d="M482.796,583.048c0,0,17.644-63.428-10.211-118.052l-31.717,1.18
			l19.555-26.183c0,0-9.128-19.748-21.592-35.027c0,0-41.744,10.607-58.672-4.026l40.936-16.184c0,0-19.838-34.712-49.688-56.009
			c0,0-29.581,35.605-56.05,33.746l40.737-45.219c0,0-22.987-25.164-53.008-39.586l-20.044,26.846l16-33.42l-17.841-6.752
			l-6.196,8.303l-0.186-13.07l-11.327-3.486l-5.722,7.667l-1.145-11.797c0,0-30.491-21.777-72.693-2.562
			C183.933,249.417,420.112,445.701,482.796,583.048"/>
		<path fill="#02847A" stroke="#231F20" stroke-miterlimit="10" d="M85.279,165.196c0.007-0.006,0.013-0.019,0.023-0.027
			c1.17-1.538,3.386-1.816,4.951-0.621c279.406,213.063,394.402,414.476,395.526,416.474c0.919,1.645,0.329,3.729-1.323,4.648
			c-1.656,0.916-3.747,0.33-4.676-1.315c-1.111-1.981-115.561-202.208-393.761-414.251C84.462,168.918,84.135,166.73,85.279,165.196
			"/>
	</g>
	<g>
		<path fill="#00A59F" stroke="#231F20" stroke-miterlimit="10" d="M1857.568,585.038c0,0,1.097-50.769,51.972-105.998l50.153-7.912
			l-36.862-17.693l29.085-57.221l69.729,26.064l-64.477-42.664l37.819-57.164l37.96,12.686l-28.722-26.645
			c0,0,16.487-26.363,59.124-34.477l22.469,39.715l-18.949-45.028c0,0,58.228-38.892,106.772-1.036
			c-25.496,41.428-63.588,85.992-63.588,85.992l-33.661,46.545c0,0-23.437,10.301-42.639,45.384
			c-42.58,50.196-77.19,77.946-77.19,77.946l-31.514,28.853l-12.568,8.888L1857.568,585.038z"/>
		<path fill="#99E9C3" stroke="#231F20" stroke-miterlimit="10" d="M1857.568,585.038c0,0,64.328,14.004,117.278-16.915
			l-2.983-31.599l27.253,18.032c0,0,19.197-10.237,33.741-23.551c0,0-12.967-41.073,0.68-58.807l18.488,39.948
			c0,0,33.526-21.781,53.089-52.797c0,0-37.232-27.505-36.882-54.037l47.464,38.097c0,0,23.815-24.384,36.504-55.176l-27.943-18.483
			l34.277,14.072l5.725-18.197l-8.643-5.713l13.039-0.929l2.836-11.508l-7.98-5.276l11.713-1.814c0,0,20.006-31.682-1.582-72.721
			C2173.642,267.665,1991.123,514.637,1857.568,585.038"/>
		<path fill="#02847A" stroke="#231F20" stroke-miterlimit="10" d="M2252.109,164.376c0.007,0.007,0.02,0.012,0.028,0.021
			c1.602,1.081,2.006,3.277,0.901,4.908c-196.81,291.083-391.349,417.361-393.279,418.596c-1.59,1.012-3.704,0.541-4.716-1.057
			c-1.01-1.601-0.544-3.722,1.047-4.742c1.914-1.224,195.301-126.887,391.161-416.708
			C2248.347,163.773,2250.513,163.321,2252.109,164.376"/>
	</g>
</g>
<g>
	<g>
		<g>
			<g>
				<path fill="#FF5572" stroke="#231F20" stroke-miterlimit="10" d="M300.063,576.626c1.498,0.066,3,0.172,4.5,0.25
					c25.033,6.385,115.075,28.018,121.016,10.504c6.02-17.74-70.507-21.088-123.039-12.896c-1.471-0.083-2.937-0.173-4.41-0.242
					c-1.783-2.192-2.81-3.426-2.81-3.426c0.292,1.101,0.599,2.214,0.909,3.333l-0.061-0.002l0.143,0.295
					c14.355,51.232,49.567,120.032,63.24,107.107C372.843,668.98,316.991,597.604,300.063,576.626z"/>
				<path fill="#FF5572" stroke="#231F20" stroke-miterlimit="10" d="M45.029,330.13c1.723-0.109,4.298-0.273,7.548-0.465
					c30.463,4.72,119.32,16.876,123.651-1.211c4.397-18.371-69.871-15.418-123.499-3.002c-3.032,0.074-5.496,0.145-7.267,0.197
					l-3.233-1.133c0,0-1.231,3.727-3.205,9.915c-26.952,47.997-50.601,118.463-31.734,119.39
					c18.576,0.914,31.813-87.791,35.82-118.355C43.857,333.376,44.506,331.574,45.029,330.13z"/>
				<path fill="#FF5572" stroke="#231F20" stroke-miterlimit="10" d="M75.496,352.469c-6.49-0.258-10.414-0.371-10.414-0.371
					l-0.051,4.552c0,0,3.775-0.02,10.042,0.015c30.095,6.668,117.987,24.512,123.471,6.741
					C204.116,345.355,129.81,343.524,75.496,352.469z"/>
				<path fill="#FF5572" stroke="#231F20" stroke-miterlimit="10" d="M101.436,385.688c-6.454-0.271-10.405-0.393-10.405-0.393
					l-0.051,4.552c0,0,3.785-0.026,10.016,0.003c28.282,6.235,107.23,22.099,112.202,5.989
					C218.268,379.413,151.074,377.663,101.436,385.688z"/>
				<path fill="#FF5572" stroke="#231F20" stroke-miterlimit="10" d="M123.121,414.03c-6.455-0.271-10.406-0.391-10.406-0.391
					l-0.052,4.549c0,0,3.788-0.024,10.016,0.003c28.281,6.237,107.23,22.101,112.202,5.991
					C239.951,407.757,172.757,406.005,123.121,414.03z"/>
				<path fill="#FF5572" stroke="#231F20" stroke-miterlimit="10" d="M149.489,442.472c-6.43-0.282-10.393-0.407-10.393-0.407
					l-0.05,4.55c0,0,3.795-0.029,9.987-0.008c26.797,5.881,98.687,20.187,103.251,5.395
					C256.956,436.864,195.403,435.177,149.489,442.472z"/>
				<path fill="#FF5572" stroke="#231F20" stroke-miterlimit="10" d="M62.974,352.088l-4.449-0.955c0,0-0.758,3.852-1.938,10.239
					C35.875,412.37,21.26,485.249,40.093,483.8c18.544-1.428,20.54-91.09,20.678-121.916
					C62.122,355.765,62.974,352.088,62.974,352.088z"/>
				<path fill="#FF5572" stroke="#231F20" stroke-miterlimit="10" d="M84.846,393.3c0.786-6.219,1.297-9.957,1.297-9.957
					l-2.258-0.274l-2.261-0.272c0,0-0.399,3.906-0.994,10.375c-15.972,52.676-23.873,126.586-5.25,123.422
					C93.714,513.481,87.521,424.006,84.846,393.3z"/>
				<path fill="#FF5572" stroke="#231F20" stroke-miterlimit="10" d="M110.222,420.542c0.323-6.258,0.557-10.027,0.557-10.027
					l-2.273-0.104l-2.272-0.104c0,0-0.109,3.923-0.223,10.416c-12.021,53.717-14.424,128.008,3.914,123.475
					C127.976,539.733,115.165,450.966,110.222,420.542z"/>
				<path fill="#FF5572" stroke="#231F20" stroke-miterlimit="10" d="M138.282,448.468c-0.358-6.258-0.531-10.025-0.531-10.025
					l-4.542,0.283c0,0,0.315,3.912,0.906,10.381c-6.137,54.703-0.488,128.816,17.252,122.324
					C168.83,565.04,146.49,478.18,138.282,448.468z"/>
				<path fill="#FF5572" stroke="#231F20" stroke-miterlimit="10" d="M171.959,481.997c-0.404-2.461-0.736-4.524-0.991-6.127
					c1.716-0.059,4.186-0.137,7.232-0.22c26.963,5.047,99.265,17.108,103.369,2.181c4.195-15.275-57.379-15.045-103.043-6.326
					c-6.437-0.082-10.402-0.086-10.402-0.086l0.021,1.042l-2.262,0.384c0,0,0.729,3.857,1.998,10.229
					c-0.324,55.043,13.123,128.146,30.077,119.815C214.652,594.688,183.26,510.677,171.959,481.997z"/>
				<path fill="#FF5572" stroke="#231F20" stroke-miterlimit="10" d="M214.58,516.927c-0.639-2.512-1.159-4.594-1.556-6.191
					c1.485-0.283,3.309-0.627,5.422-1.02c26.629,0.773,96.372,1.39,98.036-13.315c1.707-15.075-56.341-5.803-98.35,9.184
					c-6.35,0.906-10.278,1.515-10.278,1.515l0.206,1.163l-0.314,0.082c0,0,0.306,1.093,0.872,3.069l0.031,0.168
					c0,0,0.014-0.005,0.015-0.004c0.486,1.688,1.147,3.986,1.964,6.777c4.312,52.437,23.107,120.587,38.539,111.273
					C264.327,620.474,227.88,543.68,214.58,516.927z"/>
				<path fill="#FF5572" stroke="#231F20" stroke-miterlimit="10" d="M258.044,549.868c-0.682-1.825-1.27-3.412-1.763-4.752
					c1.589-0.123,3.604-0.277,5.997-0.453c29.588,4.152,113.97,14.432,117.855-2.848c3.955-17.586-66.645-13.852-117.751-1.352
					c-3.283,0.123-5.901,0.232-7.694,0.309c-0.072-0.201-0.113-0.314-0.113-0.314l-0.954,0.362
					c-1.062,0.048-1.646,0.077-1.646,0.077l0.035,0.535l-1.689,0.643c0,0,1.469,3.654,3.948,9.639
					c9.962,51.664,36.022,117.382,50.354,106.451C318.704,647.425,274.161,575.026,258.044,549.868z"/>
				<path fill="#FF5572" stroke="#231F20" stroke-miterlimit="10" d="M425.159,689.845c9.717-14.32-58.043-69.719-75.934-83.969
					c-0.573-0.689-1.148-1.376-1.718-2.067l1.216,0.079c25.018,8.459,102.43,33.209,109.018,17.896
					c7.049-16.392-67.602-25.122-116.777-20.573c0,0,0.723,0.257,2.032,0.713l1.085,1.307c1.125,1.354,2.27,2.689,3.397,4.037
					C370.948,650.467,415.499,704.082,425.159,689.845z"/>
			</g>
			<path fill="#FFB200" stroke="#231F20" stroke-miterlimit="10" d="M38.796,304.724c0,0,0.946,1.844,2.722,5.303
				c0.898,1.713,1.959,3.896,3.295,6.334c1.355,2.406,2.915,5.173,4.66,8.271c3.604,6.165,8.157,13.631,13.71,21.963
				c2.715,4.211,5.873,8.521,9.053,13.16c3.292,4.563,6.799,9.335,10.513,14.276c3.818,4.864,7.66,10.037,11.922,15.17
				c2.104,2.588,4.245,5.221,6.417,7.895c2.231,2.624,4.497,5.289,6.794,7.994c1.148,1.352,2.303,2.713,3.467,4.082
				c1.193,1.345,2.394,2.699,3.599,4.062c2.415,2.727,4.862,5.484,7.332,8.273c2.528,2.74,5.082,5.51,7.663,8.307
				c1.291,1.396,2.586,2.801,3.891,4.21c1.329,1.387,2.663,2.778,4.005,4.177c10.632,11.273,22.089,22.48,33.856,33.732
				c11.847,11.17,24.137,22.254,36.702,33.023c12.621,10.701,25.388,21.248,38.338,31.142c6.399,5.048,12.954,9.782,19.345,14.573
				c3.217,2.365,6.472,4.639,9.673,6.939c3.21,2.285,6.378,4.588,9.599,6.748c3.207,2.19,6.387,4.363,9.533,6.515
				c3.137,2.167,6.339,4.17,9.455,6.231c3.141,2.025,6.197,4.104,9.307,6.02c3.104,1.928,6.166,3.832,9.187,5.711
				c3.008,1.904,6.023,3.701,9.009,5.444c2.979,1.758,5.912,3.487,8.797,5.188c5.811,3.332,11.487,6.439,16.914,9.469
				c5.508,2.877,10.787,5.633,15.807,8.255c5.09,2.489,9.916,4.851,14.451,7.071c4.6,2.086,8.903,4.039,12.887,5.844
				c3.973,1.82,7.723,3.262,11.059,4.686c6.666,2.873,12.047,4.759,15.674,6.158c3.639,1.373,5.578,2.105,5.578,2.105
				s-1.95-0.699-5.613-2.008c-3.649-1.338-9.068-3.132-15.785-5.893c-3.361-1.369-7.141-2.748-11.149-4.5
				c-4.016-1.74-8.36-3.62-13-5.631c-4.581-2.145-9.456-4.428-14.594-6.834c-5.076-2.538-10.41-5.211-15.979-7.996
				c-5.484-2.941-11.23-5.959-17.113-9.197c-2.918-1.658-5.889-3.34-8.903-5.049c-3.025-1.697-6.079-3.449-9.126-5.305
				c-3.064-1.832-6.168-3.689-9.31-5.568c-3.151-1.869-6.253-3.899-9.437-5.876c-3.16-2.013-6.406-3.968-9.591-6.088
				c-3.195-2.103-6.419-4.229-9.669-6.368c-3.274-2.115-6.489-4.367-9.75-6.607c-3.25-2.252-6.556-4.478-9.826-6.797
				c-6.492-4.696-13.154-9.336-19.663-14.291c-13.171-9.708-26.169-20.076-39.03-30.607c-12.809-10.603-25.349-21.526-37.453-32.555
				c-12.024-11.109-23.743-22.186-34.644-33.352c-1.375-1.387-2.744-2.766-4.105-4.139c-1.337-1.396-2.668-2.789-3.993-4.174
				c-2.646-2.773-5.266-5.52-7.861-8.235c-2.54-2.77-5.053-5.508-7.533-8.214c-1.243-1.354-2.474-2.699-3.7-4.037
				c-1.199-1.361-2.39-2.715-3.57-4.058c-2.365-2.688-4.698-5.341-6.996-7.953c-2.24-2.663-4.45-5.282-6.619-7.86
				c-4.398-5.112-8.373-10.281-12.322-15.137c-3.844-4.938-7.483-9.711-10.901-14.283c-3.312-4.656-6.586-8.975-9.425-13.213
				c-5.803-8.391-10.562-15.895-14.387-22.195c-1.87-3.193-3.541-6.045-4.995-8.525c-1.412-2.482-2.484-4.596-3.42-6.31
				c-1.834-3.429-2.813-5.255-2.813-5.255L38.796,304.724z"/>
		</g>
		<g>
			<g>
				<path fill="#02847A" stroke="#231F20" stroke-miterlimit="10" d="M1821.021,460.788c0.325,1.463,0.615,2.941,0.929,4.41
					c0.341,25.832,2.852,118.402,21.307,119.588c18.697,1.201,2.039-73.565-19.523-122.164c-0.304-1.441-0.596-2.881-0.912-4.318
					c1.654-2.294,2.579-3.606,2.579-3.606c-0.987,0.567-1.983,1.153-2.983,1.747l-0.014-0.061l-0.247,0.214
					c-45.742,27.177-103.027,79.059-86.992,88.903C1750.756,555.068,1805.164,482.586,1821.021,460.788z"/>
				<path fill="#02847A" stroke="#231F20" stroke-miterlimit="10" d="M1992.768,150.457c0.555,1.636,1.383,4.079,2.411,7.167
					c3.359,30.642,14.715,119.607,33.305,119.087c18.883-0.526-3.27-71.477-29.196-120.035c-0.859-2.91-1.567-5.27-2.079-6.965
					l0.253-3.417c0,0-3.918-0.22-10.407-0.518c-53.35-13.552-127.542-18.075-123.534,0.384c3.946,18.175,93.044,7.905,123.598,3.83
					C1989.33,150.169,1991.237,150.327,1992.768,150.457z"/>
				<path fill="#02847A" stroke="#231F20" stroke-miterlimit="10" d="M1979.116,185.682c-1.438-6.333-2.35-10.152-2.35-10.152
					l-4.408,1.133c0,0,1,3.642,2.595,9.701c1.383,30.794,6.995,120.304,25.58,120.981
					C2019.411,308.035,2001.868,235.804,1979.116,185.682z"/>
				<path fill="#02847A" stroke="#231F20" stroke-miterlimit="10" d="M1953.78,219.362c-1.418-6.301-2.327-10.148-2.327-10.148
					l-4.408,1.133c0,0,1.009,3.649,2.601,9.675c1.328,28.929,6.527,109.288,23.376,109.901
					C1990.201,330.551,1974.428,265.212,1953.78,219.362z"/>
				<path fill="#02847A" stroke="#231F20" stroke-miterlimit="10" d="M1932.046,247.671c-1.416-6.305-2.326-10.151-2.326-10.151
					l-4.406,1.133c0,0,1.007,3.65,2.6,9.672c1.327,28.93,6.527,109.29,23.374,109.905
					C1968.466,358.854,1952.695,293.515,1932.046,247.671z"/>
				<path fill="#02847A" stroke="#231F20" stroke-miterlimit="10" d="M1911.435,280.523c-1.399-6.284-2.309-10.143-2.309-10.143
					l-4.405,1.135c0,0,1.014,3.657,2.603,9.642c1.285,27.406,6.154,100.541,21.624,101.105
					C1944.779,382.84,1930.411,322.964,1911.435,280.523z"/>
				<path fill="#02847A" stroke="#231F20" stroke-miterlimit="10" d="M1976.229,173.492l-0.234-4.545c0,0-3.917,0.268-10.391,0.79
					c-54.63-6.745-128.802-1.92-122.509,15.891c6.196,17.535,93.3-3.839,123.101-11.717
					C1972.458,173.623,1976.229,173.492,1976.229,173.492z"/>
				<path fill="#02847A" stroke="#231F20" stroke-miterlimit="10" d="M1942.117,205.323c6.208-0.859,9.952-1.336,9.952-1.336
					l-0.322-2.252l-0.324-2.254c0,0-3.876,0.631-10.277,1.737c-55.016-1.734-128.439,9.844-120.545,27.005
					C1828.37,245.118,1913.162,215.884,1942.117,205.323z"/>
				<path fill="#02847A" stroke="#231F20" stroke-miterlimit="10" d="M1922.406,236.905c6.126-1.315,9.827-2.068,9.827-2.068
					l-0.491-2.223l-0.489-2.223c0,0-3.816,0.916-10.117,2.494c-54.995,2.352-127.357,19.338-118.215,35.868
					C1811.923,285.026,1894.311,249.585,1922.406,236.905z"/>
				<path fill="#02847A" stroke="#231F20" stroke-miterlimit="10" d="M1902.731,271.259c5.949-1.973,9.545-3.118,9.545-3.118
					l-1.456-4.312c0,0-3.694,1.321-9.788,3.571c-54.418,8.29-124.517,33.007-113.638,48.45
					C1798.105,331.052,1876.174,286.905,1902.731,271.259z"/>
				<path fill="#02847A" stroke="#231F20" stroke-miterlimit="10" d="M1879.107,312.493c2.271-1.03,4.177-1.886,5.66-2.549
					c0.501,1.643,1.218,4.007,2.091,6.925c2.133,27.35,9.276,100.301,24.758,100.385c15.841,0.083-0.385-59.317-20.67-101.147
					c-1.595-6.236-2.621-10.065-2.621-10.065l-1,0.292l-0.96-2.085c0,0-3.535,1.706-9.356,4.587
					c-53.237,13.994-120.332,45.976-107.882,60.182C1781.382,383.006,1854.349,330.858,1879.107,312.493z"/>
				<path fill="#02847A" stroke="#231F20" stroke-miterlimit="10" d="M1856.454,362.726c2.259-1.269,4.135-2.311,5.574-3.111
					c0.658,1.36,1.466,3.033,2.394,4.971c6.173,25.915,23.704,93.422,38.336,91.207c15-2.268-9.039-55.912-34.428-92.583
					c-2.524-5.896-4.134-9.53-4.134-9.53l-1.069,0.501l-0.16-0.283c0,0-0.976,0.58-2.737,1.64l-0.154,0.075l0.009,0.013
					c-1.504,0.908-3.552,2.145-6.035,3.658c-49.516,17.792-110.438,53.652-97.435,66.131
					C1769.393,437.675,1834.076,382.523,1856.454,362.726z"/>
				<path fill="#02847A" stroke="#231F20" stroke-miterlimit="10" d="M1835.94,413.258c1.585-1.132,2.966-2.112,4.13-2.937
					c0.533,1.503,1.205,3.408,1.996,5.674c3.68,29.649,15.685,113.804,33.379,113.064c18.009-0.75-3.942-67.953-29.295-114.056
					c-0.974-3.138-1.76-5.637-2.299-7.348c0.175-0.124,0.273-0.192,0.273-0.192l-0.598-0.828c-0.322-1.014-0.502-1.568-0.502-1.568
					l-0.509,0.173l-1.058-1.464c0,0-3.147,2.367-8.282,6.318c-47.301,23.045-103.986,65.289-89.707,76.287
					C1757.501,497.188,1815.834,435.361,1835.94,413.258z"/>
				<path fill="#02847A" stroke="#231F20" stroke-miterlimit="10" d="M1744.205,611.009c16.353,5.662,52.239-74.168,61.348-95.146
					c0.518-0.732,1.031-1.467,1.552-2.195l0.238,1.193c-1.666,26.357-5.447,107.541,11.051,109.923
					c17.662,2.546,6.691-71.808-10.48-118.11c0,0-0.061,0.764-0.161,2.148l-0.98,1.387c-1.015,1.437-2.007,2.889-3.015,4.33
					C1768.141,548.427,1727.945,605.38,1744.205,611.009z"/>
			</g>
			<path fill="#FFB200" stroke="#231F20" stroke-miterlimit="10" d="M2015.684,137.834c0,0-1.535,1.393-4.415,4.007
				c-1.42,1.314-3.253,2.904-5.258,4.83c-1.973,1.934-4.239,4.159-6.775,6.648c-5.02,5.082-11.044,11.42-17.646,18.948
				c-3.361,3.716-6.702,7.885-10.355,12.162c-3.552,4.364-7.247,8.993-11.053,13.861c-3.705,4.951-7.703,10.006-11.551,15.455
				c-1.952,2.705-3.938,5.455-5.955,8.25c-1.955,2.834-3.939,5.717-5.954,8.637c-1.007,1.461-2.021,2.928-3.04,4.409
				c-0.99,1.501-1.986,3.013-2.988,4.532c-2.006,3.039-4.033,6.119-6.084,9.229c-1.988,3.153-4,6.339-6.03,9.558
				c-1.013,1.61-2.032,3.225-3.053,4.852c-0.994,1.645-1.992,3.295-2.993,4.953c-8.123,13.197-15.968,27.173-23.774,41.461
				c-7.706,14.342-15.216,29.089-22.351,44.022c-7.054,14.967-13.92,30.037-20.108,45.114c-3.211,7.49-6.079,15.051-9.044,22.467
				c-1.449,3.722-2.799,7.455-4.188,11.145c-1.371,3.691-2.771,7.351-4.021,11.022c-1.281,3.667-2.553,7.3-3.814,10.898
				c-1.276,3.592-2.379,7.204-3.559,10.749c-1.141,3.56-2.353,7.053-3.395,10.553c-1.056,3.496-2.098,6.949-3.127,10.355
				c-1.058,3.398-2.009,6.777-2.916,10.113c-0.924,3.333-1.832,6.615-2.725,9.844c-1.707,6.477-3.232,12.766-4.748,18.793
				c-1.346,6.066-2.636,11.879-3.863,17.408c-1.08,5.562-2.105,10.836-3.072,15.793c-0.819,4.982-1.586,9.646-2.295,13.963
				c-0.725,4.309-1.143,8.305-1.65,11.896c-1.042,7.183-1.463,12.869-1.872,16.735c-0.38,3.87-0.584,5.933-0.584,5.933
				s0.169-2.064,0.481-5.941c0.342-3.871,0.666-9.57,1.586-16.773c0.449-3.602,0.798-7.609,1.449-11.937
				c0.636-4.33,1.323-9.013,2.059-14.017c0.88-4.98,1.817-10.281,2.805-15.868c1.133-5.562,2.328-11.407,3.57-17.509
				c1.415-6.061,2.835-12.394,4.434-18.916c0.842-3.248,1.695-6.555,2.562-9.909c0.853-3.362,1.749-6.766,2.751-10.19
				c0.973-3.436,1.959-6.916,2.958-10.438c0.985-3.529,2.139-7.053,3.221-10.639c1.122-3.574,2.166-7.218,3.386-10.844
				c1.201-3.633,2.415-7.298,3.638-10.992c1.19-3.711,2.529-7.4,3.845-11.132c1.332-3.725,2.621-7.494,4.01-11.254
				c2.848-7.49,5.598-15.13,8.69-22.702c5.952-15.241,12.585-30.488,19.413-45.645c6.909-15.123,14.198-30.072,21.701-44.627
				c7.604-14.496,15.254-28.693,23.204-42.119c0.98-1.689,1.956-3.369,2.928-5.041c1.001-1.654,2.001-3.301,2.993-4.939
				c1.991-3.277,3.962-6.52,5.91-9.732c2.014-3.172,4.004-6.311,5.975-9.408c0.983-1.552,1.963-3.09,2.936-4.624
				c1.003-1.511,2-3.011,2.99-4.501c1.981-2.983,3.937-5.924,5.862-8.822c1.988-2.855,3.944-5.67,5.869-8.435
				c3.794-5.575,7.753-10.757,11.414-15.833c3.769-4.995,7.433-9.75,10.96-14.239c3.637-4.409,6.955-8.692,10.31-12.535
				c6.593-7.784,12.604-14.329,17.694-19.661c2.598-2.635,4.916-4.99,6.935-7.039c2.03-2.008,3.792-3.593,5.203-4.942
				c2.834-2.663,4.344-4.082,4.344-4.082L2015.684,137.834z"/>
		</g>
		<g>
			<g>
				<path fill="#00A59F" stroke="#231F20" stroke-miterlimit="10" d="M1769.751,672.292c23.097-33.291,68.146-44.242,104.274-24.088
					c36.129,20.154,50.478,64.24,34.283,101.383L1769.751,672.292z"/>
				<path fill="#99E9C3" stroke="#231F20" stroke-miterlimit="10" d="M1780.195,678.119c19.846-27.569,57.644-36.48,88.035-19.526
					c30.393,16.953,42.666,53.798,29.632,85.166L1780.195,678.119z"/>
				<path fill="#FF4A5B" stroke="#231F20" stroke-miterlimit="10" d="M1784.847,680.714c18.393-25.02,52.979-33.029,80.808-17.505
					c27.83,15.524,39.184,49.162,27.557,77.954L1784.847,680.714z"/>
			</g>
			<g>
				<g>
					<path fill="#00A59F" stroke="#231F20" stroke-miterlimit="10" d="M1880.479,725.958c0.414-0.74,1.349-1.006,2.087-0.592
						c0.741,0.412,1.006,1.346,0.594,2.085c-0.414,0.739-2.621,1.548-2.621,1.548S1880.068,726.697,1880.479,725.958z"/>
					<path fill="#00A59F" stroke="#231F20" stroke-miterlimit="10" d="M1869.24,719.688c0.412-0.739,1.347-1.005,2.086-0.593
						s1.005,1.347,0.593,2.086c-0.413,0.74-2.62,1.549-2.62,1.549S1868.826,720.427,1869.24,719.688z"/>
					<path fill="#00A59F" stroke="#231F20" stroke-miterlimit="10" d="M1858,713.417c0.412-0.74,1.345-1.005,2.086-0.593
						c0.74,0.413,1.005,1.347,0.592,2.086c-0.413,0.74-2.62,1.548-2.62,1.548S1857.587,714.156,1858,713.417z"/>
					<path fill="#00A59F" stroke="#231F20" stroke-miterlimit="10" d="M1846.758,707.146c0.413-0.738,1.348-1.004,2.088-0.592
						c0.738,0.413,1.005,1.347,0.591,2.087c-0.411,0.739-2.619,1.548-2.619,1.548S1846.347,707.886,1846.758,707.146z"/>
					<path fill="#00A59F" stroke="#231F20" stroke-miterlimit="10" d="M1835.518,700.876c0.412-0.741,1.347-1.005,2.087-0.593
						c0.739,0.413,1.004,1.347,0.592,2.087c-0.413,0.739-2.619,1.547-2.619,1.547S1835.104,701.616,1835.518,700.876z"/>
					<path fill="#00A59F" stroke="#231F20" stroke-miterlimit="10" d="M1824.276,694.606c0.414-0.742,1.348-1.006,2.088-0.594
						c0.739,0.412,1.004,1.346,0.593,2.086c-0.414,0.74-2.621,1.549-2.621,1.549S1823.865,695.345,1824.276,694.606z"/>
					<path fill="#00A59F" stroke="#231F20" stroke-miterlimit="10" d="M1813.036,688.335c0.413-0.741,1.347-1.006,2.086-0.594
						c0.74,0.414,1.006,1.348,0.593,2.088s-2.619,1.547-2.619,1.547S1812.623,689.073,1813.036,688.335z"/>
					<path fill="#00A59F" stroke="#231F20" stroke-miterlimit="10" d="M1801.796,682.063c0.413-0.74,1.347-1.004,2.087-0.592
						c0.739,0.412,1.004,1.346,0.592,2.086c-0.413,0.74-2.62,1.549-2.62,1.549S1801.383,682.804,1801.796,682.063z"/>
				</g>
				<g>
					<path fill="#00A59F" stroke="#231F20" stroke-miterlimit="10" d="M1880.562,712.603c0.412-0.738,1.347-1.004,2.086-0.592
						c0.74,0.413,1.005,1.348,0.593,2.087c-0.413,0.739-2.62,1.548-2.62,1.548S1880.149,713.343,1880.562,712.603z"/>
					<path fill="#00A59F" stroke="#231F20" stroke-miterlimit="10" d="M1869.32,706.333c0.412-0.74,1.347-1.006,2.086-0.594
						c0.74,0.414,1.005,1.35,0.593,2.088c-0.412,0.74-2.619,1.547-2.619,1.547S1868.908,707.071,1869.32,706.333z"/>
					<path fill="#00A59F" stroke="#231F20" stroke-miterlimit="10" d="M1858.08,700.062c0.412-0.738,1.346-1.004,2.086-0.592
						c0.739,0.414,1.004,1.348,0.592,2.086c-0.413,0.74-2.619,1.549-2.619,1.549S1857.666,700.802,1858.08,700.062z"/>
					<path fill="#00A59F" stroke="#231F20" stroke-miterlimit="10" d="M1846.839,693.792c0.413-0.74,1.347-1.006,2.087-0.594
						c0.74,0.414,1.004,1.348,0.592,2.088c-0.413,0.738-2.62,1.548-2.62,1.548S1846.427,694.531,1846.839,693.792z"/>
					<path fill="#00A59F" stroke="#231F20" stroke-miterlimit="10" d="M1835.599,687.521c0.411-0.74,1.348-1.004,2.085-0.592
						c0.74,0.412,1.007,1.346,0.594,2.086c-0.414,0.74-2.62,1.549-2.62,1.549S1835.185,688.261,1835.599,687.521z"/>
					<path fill="#00A59F" stroke="#231F20" stroke-miterlimit="10" d="M1824.357,681.251c0.412-0.74,1.347-1.005,2.086-0.593
						c0.74,0.412,1.005,1.347,0.593,2.086c-0.413,0.74-2.62,1.55-2.62,1.55S1823.945,681.99,1824.357,681.251z"/>
					<path fill="#00A59F" stroke="#231F20" stroke-miterlimit="10" d="M1813.117,674.979c0.413-0.74,1.347-1.005,2.085-0.591
						c0.74,0.412,1.007,1.346,0.593,2.085c-0.412,0.74-2.619,1.549-2.619,1.549S1812.705,675.72,1813.117,674.979z"/>
				</g>
				<g>
					<path fill="#00A59F" stroke="#231F20" stroke-miterlimit="10" d="M1880.749,699.056c0.414-0.74,1.349-1.006,2.087-0.594
						c0.74,0.413,1.006,1.348,0.594,2.087c-0.414,0.739-2.621,1.548-2.621,1.548S1880.337,699.794,1880.749,699.056z"/>
					<path fill="#00A59F" stroke="#231F20" stroke-miterlimit="10" d="M1869.509,692.784c0.413-0.74,1.348-1.004,2.086-0.592
						c0.74,0.412,1.006,1.346,0.594,2.086c-0.413,0.739-2.621,1.548-2.621,1.548S1869.096,693.524,1869.509,692.784z"/>
					<path fill="#00A59F" stroke="#231F20" stroke-miterlimit="10" d="M1858.27,686.513c0.411-0.739,1.346-1.004,2.086-0.592
						c0.738,0.412,1.004,1.346,0.591,2.086c-0.412,0.74-2.619,1.549-2.619,1.549S1857.855,687.253,1858.27,686.513z"/>
					<path fill="#00A59F" stroke="#231F20" stroke-miterlimit="10" d="M1847.027,680.243c0.413-0.74,1.348-1.006,2.087-0.592
						c0.739,0.412,1.005,1.346,0.591,2.085c-0.41,0.74-2.618,1.549-2.618,1.549S1846.616,680.983,1847.027,680.243z"/>
					<path fill="#00A59F" stroke="#231F20" stroke-miterlimit="10" d="M1835.787,673.972c0.412-0.739,1.346-1.004,2.086-0.592
						s1.005,1.347,0.593,2.086c-0.413,0.74-2.619,1.548-2.619,1.548S1835.374,674.712,1835.787,673.972z"/>
					<path fill="#00A59F" stroke="#231F20" stroke-miterlimit="10" d="M1824.545,667.702c0.414-0.74,1.348-1.006,2.088-0.594
						s1.004,1.348,0.591,2.087c-0.411,0.741-2.619,1.548-2.619,1.548S1824.135,668.44,1824.545,667.702z"/>
				</g>
				<g>
					<path fill="#00A59F" stroke="#231F20" stroke-miterlimit="10" d="M1869.59,679.429c0.412-0.738,1.347-1.004,2.086-0.592
						c0.74,0.413,1.005,1.348,0.593,2.087c-0.413,0.739-2.62,1.548-2.62,1.548S1869.178,680.169,1869.59,679.429z"/>
					<path fill="#00A59F" stroke="#231F20" stroke-miterlimit="10" d="M1858.349,673.159c0.412-0.74,1.347-1.004,2.087-0.592
						c0.739,0.412,1.004,1.346,0.592,2.086c-0.413,0.739-2.62,1.549-2.62,1.549S1857.936,673.899,1858.349,673.159z"/>
					<path fill="#00A59F" stroke="#231F20" stroke-miterlimit="10" d="M1847.107,666.888c0.414-0.738,1.348-1.004,2.088-0.592
						c0.737,0.414,1.004,1.348,0.59,2.086c-0.411,0.74-2.618,1.549-2.618,1.549S1846.696,667.629,1847.107,666.888z"/>
				</g>
			</g>
		</g>
		<g>
			<path fill="#FF4A5B" stroke="#231F20" stroke-miterlimit="10" d="M592.267,396.499c-8.569-3.605-18.5-3.953-27.783-0.182
				c-18.566,7.543-27.516,28.709-19.973,47.275l33.498,82.453l67.256-27.322l-33.498-82.455
				C607.995,406.985,600.819,400.11,592.267,396.499z"/>
			<path fill="#FFEF00" stroke="#231F20" stroke-miterlimit="10" d="M603.453,515.71l15.28,37.613
				c1.836,4.52,6.988,6.695,11.508,4.859c4.521-1.838,6.696-6.99,4.859-11.51l-15.279-37.611L603.453,515.71z"/>
			<path fill="#FF97BA" stroke="#231F20" d="M611.767,416.269l10.633,26.174c0.965,2.375-0.178,5.082-2.553,6.047l0,0
				c-2.375,0.965-3.519,3.672-2.554,6.047l6.81,16.76c0.72,1.773-0.133,3.793-1.904,4.512l0,0c-1.772,0.721-3.793-0.133-4.512-1.904
				l-7.139-17.572c-0.783-1.928-2.98-2.854-4.906-2.072l0,0c-1.928,0.783-2.854,2.98-2.072,4.906l2.793,6.875
				c1.305,3.213-0.241,6.875-3.453,8.18l0,0c-3.213,1.305-6.875-0.242-8.181-3.453l-4.512-11.107
				c-1.191-2.932-4.534-4.342-7.466-3.15l0,0c-2.932,1.189-4.344,4.533-3.152,7.465l10.726,26.4c1.22,3.004-0.226,6.428-3.229,7.646
				l0,0c-3.003,1.221-6.427-0.225-7.647-3.229l-7.986-19.658c-0.736-1.812-2.804-2.686-4.617-1.949l0,0
				c-1.814,0.736-2.688,2.805-1.95,4.617l2.392,5.887c0.624,1.537-0.116,3.289-1.653,3.914l0,0c-1.537,0.623-3.29-0.115-3.914-1.652
				l-16.911-41.627c-7.236-17.814,0.123-38.604,17.42-47.002c9.911-4.811,20.771-4.721,30.039-0.822
				C600.819,400.11,607.995,406.985,611.767,416.269z"/>
		</g>
		<circle fill="#FFB200" stroke="#231F20" stroke-miterlimit="10" cx="491.252" cy="662.706" r="13.706"/>
		<circle fill="#99E9C3" stroke="#231F20" stroke-miterlimit="10" cx="2039.924" cy="420.044" r="7.917"/>
		<path fill="#FF4A5B" stroke="#231F20" stroke-miterlimit="10" d="M1940.084,234.87c0.05,0.808,0.101,1.66,0.155,2.555
			c0.095,0.877,0.194,1.794,0.298,2.75c0.207,1.916,0.433,3.986,0.671,6.199c0.271,3.059,0.759,6.404,1.292,9.98
			c10.288-1.63,20.047,1.751,28.951,8.676c-8.911,0.695-16.437,3.004-16.437,3.004s11.43-1.412,22.954,2.809
			c12.092,12.307,22.258,31.121,29.542,52.154c-10.511-3.797-22.047-4.15-22.047-4.15s16.306,4.815,26.212,17.528
			c0.278,1.002,0.544,2.009,0.809,3.016c-13.572-3.478-27.86,0.64-27.86,0.64s18.385,3.7,30.875,12.319
			c4.661,23.001,5.752,46.312,2.188,65.165c-0.267-0.203-0.438-0.316-0.438-0.316c-10.803-7.289-26.869-9.449-26.869-9.449
			s16.526,5.281,25.093,18.898c-3.516,11.717-9.262,20.998-17.596,26.32c0.008,0.021,0.014,0.037,0.014,0.037
			s-0.006-0.016-0.015-0.037c-0.098,0.062-0.19,0.131-0.288,0.191c-18.966,0.098-37.014-14.727-51.581-36.283
			c-3.646-14.6,2.24-27.873,2.24-27.873s-7.335,5.02-10.829,13.666c-6.059-11.178-11.248-23.441-15.302-35.987
			c3.018-11.981,10.732-20.687,10.732-20.687s-7.065,5.603-12.965,13.34c-2.132-7.467-3.854-14.974-5.104-22.35
			c5.769-11.045,15.776-16.734,15.776-16.734s-9.562-0.365-17.334,5.324c-3.331-32.068,3.19-59.756,24.353-67.953
			c-0.66-3.788-1.273-7.328-1.65-10.626c-0.301-2.269-0.583-4.392-0.844-6.355c-0.131-0.982-0.257-1.925-0.375-2.825
			c-0.076-0.893-0.148-1.742-0.217-2.551c-0.547-6.459-0.859-10.149-0.859-10.149l5.847-0.414
			C1939.476,224.701,1939.697,228.399,1940.084,234.87z"/>
		<path fill="#99E9C3" stroke="#231F20" stroke-miterlimit="10" d="M180.368,425.212c0.647,0.486,1.329,1.002,2.044,1.54
			c0.729,0.497,1.492,1.017,2.287,1.558c1.591,1.086,3.313,2.258,5.152,3.513c2.502,1.777,5.364,3.577,8.431,5.493
			c5.436-8.886,14.341-14.117,25.388-16.398c-5.254,7.23-8.38,14.455-8.38,14.455s6.343-9.613,17.031-15.643
			c17.211-1.215,38.123,3.258,58.854,11.363c-9.71,5.533-17.465,14.082-17.465,14.082s14.245-9.281,30.347-8.57
			c0.942,0.438,1.881,0.89,2.818,1.342c-11.453,8.07-17.592,21.613-17.592,21.613s14.746-11.588,29.408-15.498
			c20.525,11.378,38.97,25.674,51.003,40.621c-0.327,0.07-0.525,0.127-0.525,0.127c-12.556,3.489-24.624,14.312-24.624,14.312
			s14.742-9.148,30.661-6.83c6.634,10.278,9.968,20.674,8.609,30.467c0.021,0.009,0.037,0.014,0.037,0.014s-0.017-0.005-0.037-0.012
			c-0.017,0.115-0.024,0.23-0.042,0.344c-12.232,14.493-35.223,18.607-61.078,15.703c-13.474-6.7-19.754-19.791-19.754-19.791
			s-0.939,8.838,3.371,17.107c-12.436-2.643-25.135-6.652-37.311-11.709c-7.159-10.071-8.775-21.59-8.775-21.59
			s-0.322,9.012,1.736,18.521c-7.064-3.224-13.895-6.783-20.316-10.619c-4.662-11.557-2.497-22.862-2.497-22.862
			s-6.482,7.039-7.196,16.644c-26.562-18.273-43.397-41.202-35.902-62.623c-3.311-1.956-6.402-3.786-9.156-5.64
			c-1.921-1.243-3.72-2.406-5.383-3.481c-0.833-0.538-1.631-1.054-2.393-1.549c-0.729-0.521-1.422-1.018-2.081-1.489
			c-5.27-3.774-8.281-5.933-8.281-5.933l3.479-4.717C172.236,419.077,175.194,421.308,180.368,425.212z"/>
	</g>
</g>
<g>
	<g>
		<path fill="#FFD600" stroke="#231F20" stroke-miterlimit="10" d="M458.276,529.46c0,0,34.936-31.212,43.147-99.994l-24.528-39.904
			l34.513,15.23l22.671-54.698l-60.086-33.256l68.582,19.623l17.388-60.796l-31.65-19.003l35.905,4.157
			c0,0,8.597-27.369-11.289-62.121l-41.311,8.062l42.93-13.718c0,0-7.651-64.142-63.295-75.478
			c-13.758,42.719-22.162,96.146-22.162,96.146l-12.445,51.508c0,0,6.83,22.606-6.252,57.106
			c-9.652,59.949-8.355,100.856-8.355,100.856l-1.332,39.393l1.306,14.142L458.276,529.46z"/>
		<path fill="#FFEF00" stroke="#231F20" stroke-miterlimit="10" d="M458.276,529.46c0,0-48.393-36.701-58.467-92.357l23.946-16.861
			l-28.985-8.291c0,0-4.34-19.598-3.721-37.775c0,0,36.568-15.539,40.82-35.74l-39.096,10.993c0,0-4.828-36.566,5.185-68.884
			c0,0,41.606,9.613,59.996-6.539l-55.167-10.433c0,0,2.812-31.315,16.787-58.677l29.717,8.505l-30.417-15.59l9.32-14.921
			l9.194,2.629l-7.172-9.697l6.369-8.889l8.484,2.429l-5.756-9.296c0,0,10.217-33.023,51.938-42.5
			C491.253,117.564,427.55,393.616,458.276,529.46"/>
		<path fill="#FFB200" stroke="#231F20" stroke-miterlimit="10" d="M516.608,0.622l-0.027-0.008
			c-1.719-0.471-3.505,0.562-3.983,2.312c-86.054,312.513-57.935,524.625-57.643,526.718c0.241,1.719,1.843,2.922,3.562,2.672
			c1.736-0.254,2.942-1.849,2.705-3.575c-0.293-2.075-28.152-213.007,57.589-524.104C519.287,2.897,518.307,1.107,516.608,0.622"/>
	</g>
	<g>
		<path fill="#FFD600" stroke="#231F20" stroke-miterlimit="10" d="M2013.104,573.097c0,0,46.578,5.015,103.136-34.982
			l13.183-44.947l11.822,35.824l55.792-19.827l-15.58-66.884l31.393,64.055l56.777-27.834l-7.104-36.229l20.976,29.438
			c0,0,26.075-11.96,38.545-50.008l-33.668-25.262l38.95,22.674c0,0,42.482-48.662,13.608-97.562
			c-40.927,18.417-86.215,47.979-86.215,47.979l-46.572,25.28c0,0-12.202,20.218-46.576,33.628
			c-50.967,33.008-80.46,61.383-80.46,61.383l-30.132,25.408l-9.622,10.447L2013.104,573.097z"/>
		<path fill="#FFEF00" stroke="#231F20" stroke-miterlimit="10" d="M2013.104,573.097c0,0-5.187-60.514,29.374-105.289l28.562,6.477
			l-13.27-27.071c0,0,11.639-16.353,25.546-28.075c0,0,36.039,16.729,53.883,6.348l-34.359-21.652c0,0,23.906-28.086,54.604-42.311
			c0,0,20.746,37.324,45.059,40.149l-29.225-47.938c0,0,25.128-18.898,54.802-26.86l13.602,27.757l-8.812-33.024l17.321-3.081
			l4.21,8.586l2.392-11.82l10.865-1.23l3.883,7.926l3.044-10.502c0,0,31.357-14.547,66.35,10.069
			C2340.933,321.553,2093.345,459.258,2013.104,573.097"/>
		<path fill="#FFB200" stroke="#231F20" stroke-miterlimit="10" d="M2444.726,262.009l-0.013-0.026
			c-0.803-1.592-2.766-2.226-4.386-1.407c-289.63,145.549-428.228,308.56-429.585,310.18c-1.113,1.33-0.934,3.326,0.404,4.434
			c1.352,1.118,3.343,0.945,4.466-0.388c1.344-1.608,139.239-163.638,427.608-308.468
			C2444.831,265.521,2445.503,263.595,2444.726,262.009"/>
	</g>
</g>
</svg>
